<svg width="20" height="19" viewBox="0 0 20 19" fill="none" xmlns="http://www.w3.org/2000/svg">
<path d="M2.74072 12.1714C3.30609 11.5851 3.94999 11.1427 4.82684 11.2867C5.11999 11.3338 5.43409 11.4306 5.67228 11.5981C6.55174 12.2263 7.55946 12.5535 8.56718 12.8833C8.79229 12.9566 9.02001 13.0247 9.24249 13.111C9.7084 13.2916 9.92826 13.8413 9.76075 14.3831C9.60893 14.8726 9.22417 15.0925 8.70591 14.993C8.2243 14.9014 7.74269 14.815 7.26369 14.7208C7.09094 14.6867 6.96268 14.7391 6.92342 14.9145C6.88416 15.0925 6.98362 15.1998 7.15376 15.2338C7.72175 15.3411 8.28973 15.4589 8.86034 15.5427C9.5147 15.6395 10.2345 15.0401 10.3104 14.3177C10.3418 14.0271 10.2738 13.7183 10.2162 13.4278C10.1926 13.31 10.1926 13.2419 10.2712 13.1555C10.6193 12.7786 10.9543 12.3939 11.305 12.0169C11.6663 11.6296 12.1871 11.6453 12.5353 12.0379C12.9017 12.4541 12.9593 13.0063 12.6844 13.5298C12.0013 14.8229 11.1244 15.9667 9.98846 16.8959C9.48853 17.3042 8.95457 17.668 8.42322 18.0345C7.9547 18.3564 7.4443 18.3878 6.9208 18.1627C6.20362 17.8565 5.48905 17.5529 4.76925 17.2545C4.61221 17.189 4.54677 17.1027 4.50227 16.9247C4.40281 16.5242 4.24576 16.1368 4.10704 15.7468C3.77985 14.8281 3.45267 13.9067 3.11502 12.9906C3.01294 12.7158 2.87421 12.4541 2.74334 12.1688L2.74072 12.1714Z" fill="white"/>
<path d="M4.38672 4.72466C5.22954 4.21163 6.06974 3.696 6.91257 3.18297C7.8627 2.60451 8.81808 2.03129 9.76298 1.44498C10.2158 1.16491 10.666 1.12042 11.1607 1.32981C11.9171 1.65176 12.6814 1.958 13.451 2.24854C13.6813 2.33492 13.9404 2.34015 14.1839 2.3925C14.2519 2.40821 14.3461 2.43962 14.3697 2.49196C14.9979 3.76667 15.6208 5.04399 16.2517 6.34225C15.8564 6.57782 15.4717 6.80815 15.0843 7.03849C15.0529 7.05681 15.0162 7.0699 14.9874 7.09346C14.2598 7.6693 13.396 7.80017 12.5087 7.89702C11.624 7.99124 10.7393 8.10903 9.86244 8.25822C9.10861 8.38648 8.81284 7.76876 9.01438 7.19292C9.11908 6.89453 9.31016 6.69037 9.61117 6.5752C10.4357 6.2611 11.2575 5.94177 12.0794 5.62244C12.1632 5.59103 12.2496 5.56224 12.3255 5.51775C12.5898 5.36332 12.6553 4.96285 12.404 4.8058C11.8857 4.48385 11.391 4.09647 10.7602 3.99962C10.3938 3.94204 10.0535 4.0415 9.71848 4.16975C9.53788 4.23781 9.35465 4.30848 9.19237 4.41056C8.70291 4.7168 8.1768 4.80056 7.60357 4.78224C6.60894 4.75083 5.61169 4.77439 4.61444 4.77439H4.39981C4.39719 4.75868 4.39195 4.74298 4.38934 4.72466H4.38672Z" fill="white"/>
<path d="M10.818 8.77921C10.8834 9.00431 10.8075 9.06189 10.6217 9.109C9.95683 9.27129 9.55113 9.71364 9.36005 10.3706H3.2954C2.90016 9.50424 2.6358 9.26082 1.88721 9.07236V6.71927C2.57036 6.57007 3.03104 6.18007 3.25352 5.51523C3.26923 5.4655 3.37392 5.41577 3.43674 5.41577C4.78212 5.41577 6.12749 5.41839 7.47548 5.42101C8.45703 5.42101 9.43858 5.42362 10.4201 5.42624C10.4986 5.42624 10.5772 5.42624 10.6662 5.47597C10.25 5.63826 9.83643 5.81101 9.41502 5.96282C8.78945 6.19054 8.44132 6.63551 8.32354 7.2794C8.14032 8.27665 8.91508 9.06451 9.91495 8.90223C10.2133 8.85511 10.5144 8.82108 10.818 8.78182V8.77921ZM6.25051 9.50162C7.12736 9.50162 7.84978 8.78444 7.85763 7.90759C7.86548 7.02813 7.13259 6.29 6.24789 6.28739C5.37104 6.28739 4.64863 7.0098 4.64601 7.88665C4.64339 8.77921 5.36057 9.50424 6.25051 9.50424V9.50162ZM3.06245 8.21122C3.18023 8.21122 3.30063 8.21907 3.41842 8.20598C3.59117 8.18766 3.6854 8.06987 3.69064 7.90759C3.69587 7.73222 3.60426 7.59873 3.42366 7.58303C3.18808 7.5647 2.9499 7.56732 2.71171 7.58303C2.5311 7.5935 2.43687 7.72175 2.42379 7.8945C2.4107 8.05679 2.55204 8.19813 2.73003 8.21122C2.83996 8.21907 2.95251 8.21122 3.06245 8.21122Z" fill="white"/>
<path d="M20 5.11219C19.9921 5.42366 19.8874 5.62782 19.6675 5.74299C19.0734 6.05971 18.474 6.3738 17.8693 6.66957C17.5029 6.84756 17.1469 6.69575 16.9506 6.30051C16.4324 5.24306 15.9193 4.18561 15.4037 3.12815C15.2048 2.72245 15.0058 2.31674 14.8148 1.90842C14.6158 1.48701 14.7363 1.1415 15.155 0.926869C15.6969 0.652036 16.2387 0.374586 16.7805 0.10237C17.2045 -0.109644 17.5736 0.0107588 17.7804 0.434787C18.4923 1.90056 19.199 3.36634 19.9057 4.83212C19.9555 4.93682 19.979 5.0546 19.9973 5.10957L20 5.11219Z" fill="white"/>
<path d="M0 13.6503C0.0130873 13.2053 0.183222 12.9095 0.520874 12.7185C0.777385 12.5719 1.04437 12.4384 1.31135 12.3101C1.78772 12.0798 2.28504 12.2761 2.46826 12.7787C2.97081 14.145 3.46813 15.5139 3.96021 16.8855C4.14605 17.4037 3.93927 17.9036 3.44981 18.1654C3.21424 18.291 2.97867 18.414 2.73786 18.5318C2.25101 18.7726 1.74584 18.5789 1.56001 18.0712C1.05745 16.7048 0.560136 15.3359 0.0654365 13.967C0.0235571 13.8518 0.0130873 13.7236 0 13.6555L0 13.6503Z" fill="white"/>
<path d="M10.0562 10.3575C10.1923 10.0094 10.4514 9.82354 10.7995 9.73193C10.9304 10.2842 10.7236 10.457 10.0562 10.3575Z" fill="white"/>
<path d="M1.89765 6.0465C1.81651 5.50468 1.95262 5.33717 2.58342 5.44187C2.44993 5.75858 2.22483 5.94965 1.89765 6.0465Z" fill="white"/>
<path d="M2.58844 10.355C1.97072 10.444 1.80058 10.2922 1.90528 9.75562C2.22985 9.83937 2.44709 10.0357 2.58844 10.355Z" fill="white"/>
<path d="M6.25305 9.00682C5.63533 9.00682 5.13802 8.5095 5.14064 7.88917C5.14325 7.28192 5.63795 6.7846 6.2452 6.78198C6.85769 6.78198 7.36809 7.29239 7.36286 7.90225C7.35762 8.50951 6.86031 9.0042 6.25305 9.00682Z" fill="white"/>
</svg>
