<svg width="20" height="18" viewBox="0 0 20 18" fill="none" xmlns="http://www.w3.org/2000/svg">
<path d="M18.1657 0H1.83429C1.60696 0 1.38895 0.0932705 1.2282 0.259286C1.06746 0.425302 0.97715 0.650464 0.97715 0.885246C0.97715 1.12003 1.06746 1.34519 1.2282 1.51121C1.38895 1.67722 1.60696 1.77049 1.83429 1.77049H18.1657C18.393 1.77049 18.6111 1.67722 18.7718 1.51121C18.9326 1.34519 19.0229 1.12003 19.0229 0.885246C19.0229 0.650464 18.9326 0.425302 18.7718 0.259286C18.6111 0.0932705 18.393 0 18.1657 0Z" fill="white"/>
<path d="M18.8571 3.2459H1.14286C0.839753 3.2459 0.549062 3.37025 0.334734 3.5916C0.120407 3.81296 0 4.11318 0 4.42622V16.8197C0 17.1327 0.120407 17.4329 0.334734 17.6543C0.549062 17.8756 0.839753 18 1.14286 18H18.8571C19.1602 18 19.4509 17.8756 19.6653 17.6543C19.8796 17.4329 20 17.1327 20 16.8197V4.42622C20 4.11318 19.8796 3.81296 19.6653 3.5916C19.4509 3.37025 19.1602 3.2459 18.8571 3.2459ZM4.57143 5.60655C4.91048 5.60655 5.24192 5.71038 5.52383 5.90493C5.80575 6.09947 6.02547 6.37599 6.15522 6.6995C6.28497 7.02302 6.31892 7.379 6.25277 7.72245C6.18663 8.06589 6.02336 8.38136 5.78361 8.62897C5.54387 8.87658 5.23841 9.0452 4.90587 9.11351C4.57333 9.18183 4.22865 9.14677 3.9154 9.01276C3.60216 8.87876 3.33442 8.65184 3.14605 8.36068C2.95768 8.06952 2.85714 7.72721 2.85714 7.37704C2.85714 6.90748 3.03775 6.45715 3.35924 6.12511C3.68074 5.79308 4.11677 5.60655 4.57143 5.60655ZM6 15.4918H3.71429C3.52485 15.4918 3.34317 15.4141 3.20921 15.2757C3.07526 15.1374 3 14.9497 3 14.7541C3 14.5584 3.07526 14.3708 3.20921 14.2325C3.34317 14.0941 3.52485 14.0164 3.71429 14.0164H6C6.18944 14.0164 6.37112 14.0941 6.50507 14.2325C6.63903 14.3708 6.71429 14.5584 6.71429 14.7541C6.71429 14.9497 6.63903 15.1374 6.50507 15.2757C6.37112 15.4141 6.18944 15.4918 6 15.4918ZM11.1429 15.4918H8.85714C8.6677 15.4918 8.48602 15.4141 8.35207 15.2757C8.21811 15.1374 8.14286 14.9497 8.14286 14.7541C8.14286 14.5584 8.21811 14.3708 8.35207 14.2325C8.48602 14.0941 8.6677 14.0164 8.85714 14.0164H11.1429C11.3323 14.0164 11.514 14.0941 11.6479 14.2325C11.7819 14.3708 11.8571 14.5584 11.8571 14.7541C11.8571 14.9497 11.7819 15.1374 11.6479 15.2757C11.514 15.4141 11.3323 15.4918 11.1429 15.4918ZM16.2857 15.4918H14C13.8106 15.4918 13.6289 15.4141 13.4949 15.2757C13.361 15.1374 13.2857 14.9497 13.2857 14.7541C13.2857 14.5584 13.361 14.3708 13.4949 14.2325C13.6289 14.0941 13.8106 14.0164 14 14.0164H16.2857C16.4752 14.0164 16.6568 14.0941 16.7908 14.2325C16.9247 14.3708 17 14.5584 17 14.7541C17 14.9497 16.9247 15.1374 16.7908 15.2757C16.6568 15.4141 16.4752 15.4918 16.2857 15.4918ZM16.2857 8.40983H8.85714C8.6677 8.40983 8.48602 8.33211 8.35207 8.19376C8.21811 8.05541 8.14286 7.86778 8.14286 7.67212C8.14286 7.47647 8.21811 7.28884 8.35207 7.15049C8.48602 7.01214 8.6677 6.93442 8.85714 6.93442H16.2857C16.4752 6.93442 16.6568 7.01214 16.7908 7.15049C16.9247 7.28884 17 7.47647 17 7.67212C17 7.86778 16.9247 8.05541 16.7908 8.19376C16.6568 8.33211 16.4752 8.40983 16.2857 8.40983Z" fill="white"/>
</svg>
