<svg width="30" height="26" viewBox="0 0 30 26" fill="none" xmlns="http://www.w3.org/2000/svg">
<path d="M15.1238 7.99107V7.57007C15.1238 5.47818 15.1238 3.38658 15.1238 1.29527C15.1238 0.707486 14.7609 0.328411 14.2531 0.411361C14.0596 0.456297 13.8803 0.548213 13.731 0.678943C11.0204 2.87193 8.31034 5.06729 5.60092 7.26503C5.43693 7.3873 5.23959 7.45697 5.03502 7.46482C4.28853 7.48801 3.54025 7.46482 2.79286 7.4791C1.26859 7.51031 0.0420181 8.6957 0.021456 10.2129C-0.00715201 12.0485 -0.00715201 13.8841 0.021456 15.7197C0.0387904 16.4408 0.33603 17.1269 0.850527 17.6336C1.36502 18.1402 2.05659 18.4278 2.77945 18.4357C3.52684 18.4526 4.27512 18.4259 5.02071 18.4517C5.23597 18.4602 5.44359 18.5336 5.61612 18.6622C8.32137 20.8445 11.0213 23.033 13.7158 25.2278C13.8648 25.3604 14.0435 25.4552 14.237 25.5043C14.7519 25.5989 15.122 25.2109 15.1229 24.6035C15.1229 22.5122 15.1229 20.4206 15.1229 18.3287V17.913L15.1489 17.9077V7.99642L15.1238 7.99107Z" fill="white"/>
<path d="M30 13.489C29.7819 18.2609 27.5335 22.3995 23.0322 25.2626C22.4287 25.647 21.8217 25.4009 21.743 24.764C21.6965 24.3903 21.8879 24.1584 22.19 23.9773C24.0824 22.8357 25.6491 21.2281 26.7398 19.3088C27.8305 17.3895 28.4086 15.2228 28.4188 13.0164C28.4289 10.8101 27.8707 8.63819 26.7977 6.70896C25.7247 4.77974 24.1729 3.15791 22.291 1.99903C21.9746 1.80369 21.6867 1.60033 21.7305 1.17309C21.7958 0.541595 22.4001 0.266877 22.9767 0.61295C24.5995 1.58178 26.0119 2.8642 27.1312 4.38496C29.0122 6.94037 29.9553 9.80618 30 13.489Z" fill="white"/>
<path d="M20.5746 12.8316C20.5817 14.0857 20.208 15.1935 19.4061 16.1541C18.8693 16.8008 18.176 17.3003 17.3919 17.6053C17.2759 17.6504 17.1506 17.6665 17.0269 17.6522C16.9032 17.6379 16.7849 17.5937 16.6823 17.5233C16.5797 17.4529 16.4959 17.3586 16.4382 17.2485C16.3805 17.1385 16.3507 17.016 16.3513 16.8918C16.3498 16.7368 16.3962 16.5852 16.4842 16.4575C16.5722 16.3298 16.6975 16.2323 16.843 16.1782C18.0794 15.7322 19.0226 14.389 19.0279 12.9672V12.9529C19.0279 11.5258 18.0874 10.171 16.8421 9.72412C16.6967 9.66989 16.5716 9.5723 16.4838 9.44463C16.396 9.31696 16.3497 9.1654 16.3513 9.01057C16.3509 8.88647 16.381 8.76416 16.4389 8.65434C16.4969 8.54451 16.5809 8.45052 16.6836 8.38056C16.7864 8.31061 16.9047 8.26683 17.0284 8.25304C17.152 8.23925 17.2771 8.25588 17.3928 8.30148C18.0003 8.54754 18.5553 8.90686 19.0279 9.36021C20.0838 10.3681 20.5683 11.7105 20.5746 12.8316Z" fill="white"/>
<path d="M23.2342 7.00549C22.3847 5.91025 21.3075 5.01166 20.0766 4.37159C19.6492 4.14682 19.255 4.24137 19.0279 4.60082C19.0142 4.62163 19.0017 4.64304 18.9904 4.66504C18.8366 4.95314 18.8527 5.22875 19.0279 5.45708C19.109 5.55896 19.2085 5.64487 19.3211 5.71039C19.4544 5.79067 19.5894 5.86291 19.727 5.9423C24.1184 8.51465 25.0794 14.5103 21.7153 18.3233C21.0392 19.0809 20.2356 19.7147 19.3408 20.1964C18.8044 20.4925 18.7302 21.0785 19.1576 21.471C19.4258 21.7136 19.7395 21.7386 20.1463 21.5049C23.4747 19.6202 25.1402 16.7392 25.2904 13.3508C25.2582 10.7436 24.5913 8.75459 23.2342 7.00549Z" fill="white"/>
</svg>
