<svg width="30" height="32" viewBox="0 0 30 32" fill="none" xmlns="http://www.w3.org/2000/svg">
<path d="M15.1238 10.9911V10.5701C15.1238 8.47818 15.1238 6.38658 15.1238 4.29527C15.1238 3.70749 14.7609 3.32841 14.2531 3.41136C14.0596 3.4563 13.8803 3.54821 13.731 3.67894C11.0204 5.87193 8.31034 8.06729 5.60092 10.265C5.43693 10.3873 5.23959 10.457 5.03502 10.4648C4.28853 10.488 3.54025 10.4648 2.79286 10.4791C1.26859 10.5103 0.0420181 11.6957 0.021456 13.2129C-0.00715201 15.0485 -0.00715201 16.8841 0.021456 18.7197C0.0387904 19.4408 0.33603 20.1269 0.850527 20.6336C1.36502 21.1402 2.05659 21.4278 2.77945 21.4357C3.52684 21.4526 4.27512 21.4259 5.02071 21.4517C5.23597 21.4601 5.44359 21.5336 5.61612 21.6622C8.32137 23.8445 11.0212 26.033 13.7158 28.2278C13.8648 28.3604 14.0435 28.4552 14.237 28.5043C14.7519 28.5989 15.122 28.2109 15.1229 27.6035C15.1229 25.5122 15.1229 23.4206 15.1229 21.3287V20.913L15.1489 20.9077V10.9964L15.1238 10.9911Z" fill="white"/>
<path d="M30 16.489C29.7819 21.2609 27.5335 25.3995 23.0322 28.2626C22.4287 28.647 21.8217 28.4009 21.743 27.764C21.6965 27.3903 21.8879 27.1584 22.19 26.9773C24.0824 25.8357 25.6491 24.2281 26.7398 22.3088C27.8305 20.3895 28.4086 18.2228 28.4188 16.0164C28.4289 13.8101 27.8707 11.6382 26.7977 9.70896C25.7247 7.77974 24.1729 6.15791 22.291 4.99902C21.9746 4.80369 21.6867 4.60033 21.7305 4.17309C21.7958 3.54159 22.4001 3.26688 22.9767 3.61295C24.5995 4.58178 26.0119 5.8642 27.1312 7.38496C29.0122 9.94037 29.9553 12.8062 30 16.489Z" fill="white"/>
<path d="M20.5746 15.8316C20.5817 17.0857 20.208 18.1935 19.4061 19.1541C18.8693 19.8008 18.176 20.3003 17.3919 20.6053C17.2759 20.6504 17.1506 20.6665 17.0269 20.6522C16.9032 20.6379 16.7849 20.5937 16.6823 20.5233C16.5797 20.4529 16.4959 20.3586 16.4382 20.2485C16.3805 20.1385 16.3507 20.016 16.3513 19.8918C16.3498 19.7368 16.3962 19.5852 16.4842 19.4575C16.5722 19.3298 16.6975 19.2323 16.843 19.1782C18.0794 18.7322 19.0226 17.389 19.0279 15.9672V15.9529C19.0279 14.5258 18.0874 13.171 16.8421 12.7241C16.6967 12.6699 16.5716 12.5723 16.4838 12.4446C16.396 12.317 16.3497 12.1654 16.3513 12.0106C16.3509 11.8865 16.381 11.7642 16.4389 11.6543C16.4969 11.5445 16.5809 11.4505 16.6836 11.3806C16.7864 11.3106 16.9047 11.2668 17.0284 11.253C17.152 11.2393 17.2771 11.2559 17.3928 11.3015C18.0003 11.5475 18.5553 11.9069 19.0279 12.3602C20.0838 13.3681 20.5683 14.7105 20.5746 15.8316Z" fill="white"/>
<path d="M23.2342 10.0055C22.3847 8.91025 21.3075 8.01166 20.0766 7.37159C19.6492 7.14682 19.255 7.24137 19.0279 7.60082C19.0142 7.62163 19.0017 7.64304 18.9904 7.66504C18.8366 7.95314 18.8527 8.22875 19.0279 8.45708C19.109 8.55896 19.2085 8.64487 19.3211 8.71039C19.4544 8.79067 19.5894 8.86291 19.727 8.9423C24.1184 11.5147 25.0794 17.5103 21.7153 21.3233C21.0392 22.0809 20.2356 22.7147 19.3408 23.1964C18.8044 23.4925 18.7302 24.0785 19.1576 24.471C19.4258 24.7136 19.7395 24.7386 20.1463 24.5049C23.4747 22.6202 25.1402 19.7392 25.2904 16.3508C25.2582 13.7436 24.5913 11.7546 23.2342 10.0055Z" fill="white"/>
<path d="M2.40002 1L26.4 31" stroke="#F42A41" stroke-width="2" stroke-linecap="round"/>
<path d="M26.4 1L2.40002 31" stroke="#F42A41" stroke-width="2" stroke-linecap="round"/>
</svg>
