<svg width="14" height="20" viewBox="0 0 14 20" fill="none" xmlns="http://www.w3.org/2000/svg">
<path d="M12.6647 10.1653C12.4394 10.139 12.2112 10.1599 11.9945 10.2268C11.7778 10.2937 11.5775 10.4051 11.4064 10.5539C11.3372 10.3096 11.2012 10.0896 11.0137 9.91847C10.8262 9.74737 10.5947 9.63204 10.3452 9.58547C10.1311 9.55919 9.91383 9.57645 9.70656 9.63624C9.49928 9.69603 9.30625 9.79712 9.13903 9.9334C9.04869 9.6962 8.8988 9.48624 8.70381 9.32374C8.50881 9.16125 8.27527 9.05169 8.02566 9.0056C7.77588 8.97899 7.52332 9.01072 7.28786 9.09826C7.05241 9.1858 6.84049 9.32676 6.66875 9.51009V5.84527C6.68234 5.59309 6.61323 5.34336 6.47193 5.13404C6.33064 4.92471 6.12488 4.76724 5.88592 4.68552C5.71087 4.62537 5.52397 4.60798 5.34083 4.63481C5.1577 4.66165 4.98364 4.73193 4.83321 4.83978C4.68279 4.94763 4.56036 5.08993 4.47617 5.25476C4.39197 5.4196 4.34846 5.60219 4.34925 5.78728V15.0653C4.04167 15.0653 3.74668 14.9431 3.52918 14.7256C3.31169 14.5081 3.1895 14.2131 3.1895 13.9056V12.856C3.1895 12.7499 3.14735 12.6481 3.07231 12.5731C2.99728 12.498 2.8955 12.4559 2.78938 12.4559H2.46465C2.04941 12.4559 1.65118 12.6208 1.35757 12.9144C1.06395 13.2081 0.898981 13.6063 0.898981 14.0215V16.8861C0.897017 17.1332 0.947714 17.3779 1.0477 17.6039C1.14769 17.8298 1.29467 18.0319 1.47886 18.1966L3.04453 19.5709C3.36551 19.8512 3.77819 20.0039 4.20428 20H10.5829C11.0441 19.9996 11.4863 19.8161 11.8123 19.4897L13.1112 18.1908C13.4375 17.8649 13.6211 17.4227 13.6215 16.9615V11.3657C13.6273 11.0854 13.5348 10.8118 13.36 10.5926C13.1852 10.3733 12.9392 10.2222 12.6647 10.1653Z" fill="white"/>
<path d="M0.579876 6.95851H2.3195C2.4733 6.95851 2.62078 6.89742 2.72953 6.78867C2.83828 6.67992 2.89938 6.53243 2.89938 6.37864V4.63901C2.89938 4.48522 2.83828 4.33772 2.72953 4.22897C2.62078 4.12023 2.4733 4.05913 2.3195 4.05913H0.579876C0.426083 4.05913 0.278598 4.12023 0.16985 4.22897C0.0611023 4.33772 0 4.48522 0 4.63901V6.37864C0 6.53243 0.0611023 6.67992 0.16985 6.78867C0.278598 6.89742 0.426083 6.95851 0.579876 6.95851ZM2.3601 8.11827H0.620472C0.466679 8.11827 0.319176 8.17936 0.210428 8.28811C0.10168 8.39686 0.0405956 8.54435 0.0405956 8.69814V10.4378C0.0405956 10.5916 0.10168 10.739 0.210428 10.8478C0.319176 10.9565 0.466679 11.0176 0.620472 11.0176H2.3601C2.51389 11.0176 2.66138 10.9565 2.77013 10.8478C2.87887 10.739 2.93998 10.5916 2.93998 10.4378V8.69814C2.93998 8.54435 2.87887 8.39686 2.77013 8.28811C2.66138 8.17936 2.51389 8.11827 2.3601 8.11827ZM10.4378 0H8.69814C8.54435 0 8.39686 0.0610935 8.28812 0.169841C8.17937 0.278589 8.11827 0.426083 8.11827 0.579876V2.3195C8.11827 2.4733 8.17937 2.62079 8.28812 2.72954C8.39686 2.83829 8.54435 2.89938 8.69814 2.89938H10.4378C10.5916 2.89938 10.739 2.83829 10.8478 2.72954C10.9565 2.62079 11.0176 2.4733 11.0176 2.3195V0.579876C11.0176 0.426083 10.9565 0.278589 10.8478 0.169841C10.739 0.0610935 10.5916 0 10.4378 0ZM0.579876 2.89938H2.3195C2.4733 2.89938 2.62078 2.83829 2.72953 2.72954C2.83828 2.62079 2.89938 2.4733 2.89938 2.3195V0.579876C2.89938 0.426083 2.83828 0.278589 2.72953 0.169841C2.62078 0.0610935 2.4733 0 2.3195 0H0.579876C0.426083 0 0.278598 0.0610935 0.16985 0.169841C0.0611023 0.278589 0 0.426083 0 0.579876V2.3195C0 2.4733 0.0611023 2.62079 0.16985 2.72954C0.278598 2.83829 0.426083 2.89938 0.579876 2.89938ZM6.37864 0H4.63901C4.48522 0 4.33773 0.0610935 4.22898 0.169841C4.12023 0.278589 4.05913 0.426083 4.05913 0.579876V2.3195C4.05913 2.4733 4.12023 2.62079 4.22898 2.72954C4.33773 2.83829 4.48522 2.89938 4.63901 2.89938H6.37864C6.53243 2.89938 6.67992 2.83829 6.78866 2.72954C6.89741 2.62079 6.95851 2.4733 6.95851 2.3195V0.579876C6.95851 0.426083 6.89741 0.278589 6.78866 0.169841C6.67992 0.0610935 6.53243 0 6.37864 0ZM10.4378 4.05913H8.69814C8.54435 4.05913 8.39686 4.12023 8.28812 4.22897C8.17937 4.33772 8.11827 4.48522 8.11827 4.63901V6.37864C8.11827 6.53243 8.17937 6.67992 8.28812 6.78867C8.39686 6.89742 8.54435 6.95851 8.69814 6.95851H10.4378C10.5916 6.95851 10.739 6.89742 10.8478 6.78867C10.9565 6.67992 11.0176 6.53243 11.0176 6.37864V4.63901C11.0176 4.48522 10.9565 4.33772 10.8478 4.22897C10.739 4.12023 10.5916 4.05913 10.4378 4.05913Z" fill="white"/>
</svg>
