<svg width="24" height="23" viewBox="0 0 24 23" fill="none" xmlns="http://www.w3.org/2000/svg">
<path d="M0.00856848 4.99494C0.130271 4.60583 0.202264 4.19102 0.38396 3.83277C1.02333 2.56775 2.07408 1.89239 3.49337 1.81354C3.89447 1.79125 4.29729 1.81354 4.7241 1.81354C4.7241 1.52557 4.7241 1.25816 4.7241 0.990759C4.7241 0.419958 5.09777 0.0188563 5.61887 0.0171422C6.13996 0.0154281 6.51535 0.41482 6.52049 0.983906C6.52049 1.25131 6.52049 1.51871 6.52049 1.79811H10.5641C10.5641 1.49985 10.5538 1.19645 10.5641 0.894769C10.5641 0.657461 10.6584 0.429873 10.8262 0.262071C10.994 0.0942695 11.2215 0 11.4589 0C11.6962 0 11.9238 0.0942695 12.0916 0.262071C12.2594 0.429873 12.3536 0.657461 12.3536 0.894769C12.3536 1.18617 12.3536 1.47757 12.3536 1.78782H16.4435C16.4435 1.48957 16.4332 1.18617 16.4435 0.882769C16.4474 0.724757 16.4932 0.570619 16.5762 0.436088C16.6591 0.301556 16.7763 0.191456 16.9158 0.117029C17.0552 0.0426032 17.2119 0.00651422 17.3699 0.0124552C17.5278 0.0183961 17.6813 0.0661522 17.8148 0.150843C17.9437 0.228867 18.0501 0.339139 18.1235 0.470791C18.1968 0.602443 18.2346 0.750932 18.233 0.901626C18.2416 1.19303 18.233 1.48271 18.233 1.80668C18.497 1.80668 18.7473 1.80668 18.9993 1.80668C19.5607 1.77571 20.1229 1.85311 20.6551 2.03465C21.3196 2.27952 21.8962 2.71684 22.3111 3.29082C22.726 3.86479 22.9605 4.54937 22.9846 5.25719C23.012 7.00902 22.9966 8.75913 22.9846 10.511C22.9883 10.6318 22.9675 10.7522 22.9235 10.8648C22.8795 10.9774 22.8132 11.08 22.7285 11.1663C22.6438 11.2526 22.5426 11.3209 22.4308 11.367C22.3191 11.4132 22.1991 11.4363 22.0782 11.4349C21.9573 11.4335 21.8379 11.4077 21.7273 11.359C21.6166 11.3103 21.517 11.2396 21.4343 11.1514C21.3516 11.0632 21.2877 10.9591 21.2463 10.8455C21.2048 10.7319 21.1868 10.6111 21.1933 10.4904C21.1933 8.8277 21.1933 7.16672 21.1933 5.50574C21.1933 4.7361 20.8762 4.14302 20.1768 3.79162C19.9685 3.69309 19.7434 3.63493 19.5135 3.62021C19.097 3.59279 18.677 3.61164 18.2296 3.61164C18.2296 3.88247 18.2296 4.14988 18.2296 4.41556C18.2296 4.99836 17.8508 5.40461 17.3211 5.39775C16.7915 5.3909 16.4367 4.99151 16.4332 4.41728C16.4332 4.15673 16.4332 3.89447 16.4332 3.6185H12.3588V4.35557C12.3588 4.98636 12.0074 5.39433 11.4657 5.39775C10.9241 5.40118 10.5641 4.99151 10.5624 4.36928V3.62021H6.51878C6.51878 3.91675 6.52906 4.22015 6.51878 4.52184C6.50605 4.75279 6.40457 4.96989 6.23551 5.12775C6.06646 5.28562 5.84293 5.37203 5.61165 5.36894C5.38036 5.36584 5.15923 5.27347 4.99446 5.11113C4.8297 4.94879 4.73406 4.72905 4.72753 4.49784C4.72753 4.20816 4.72753 3.91847 4.72753 3.58422C4.19787 3.60993 3.68364 3.58422 3.18483 3.67164C2.38262 3.82419 1.85125 4.5287 1.81354 5.36347C1.81354 5.42346 1.81354 5.48346 1.81354 5.54345V19.2821C1.81354 20.0603 2.11694 20.674 2.83172 21.0099C3.11796 21.1358 3.4275 21.2001 3.7402 21.1985C5.94798 21.2139 8.15575 21.2087 10.3635 21.1985C10.5019 21.1891 10.6408 21.2086 10.7712 21.2558C10.9017 21.3031 11.0208 21.3769 11.1212 21.4727C11.2213 21.5745 11.2956 21.6988 11.3377 21.8352C11.3799 21.9715 11.3888 22.1161 11.3636 22.2566C11.3384 22.3971 11.2799 22.5295 11.193 22.6428C11.1061 22.756 10.9933 22.8468 10.8641 22.9074L10.6601 22.9966H3.19682C3.16509 22.9797 3.1318 22.9659 3.09741 22.9554C2.5047 22.8811 1.94108 22.6556 1.46076 22.3004C0.980448 21.9453 0.599592 21.4725 0.354823 20.9276C0.208894 20.5639 0.0902898 20.1897 0 19.8083L0.00856848 4.99494Z" fill="#383434"/>
<path d="M17.1189 23C16.5981 22.8979 16.0831 22.768 15.5762 22.6109C13.245 21.7539 11.7674 19.1827 12.2028 16.7332C12.5868 14.5786 13.8192 13.0907 15.8899 12.4188C18.0205 11.7331 19.9454 12.2302 21.495 13.8501C22.9211 15.3396 23.3531 17.1566 22.7497 19.1244C22.1069 21.2225 20.6362 22.4858 18.4644 22.9143C18.3102 22.9452 18.1576 22.9709 18.0034 23H17.1189ZM21.2053 17.5628C21.2046 16.8437 20.9908 16.1408 20.5908 15.5431C20.1908 14.9455 19.6225 14.4798 18.9579 14.205C18.2933 13.9301 17.5622 13.8585 16.8569 13.9991C16.1516 14.1397 15.5038 14.4862 14.9954 14.9949C14.487 15.5035 14.1407 16.1515 14.0005 16.8569C13.8602 17.5622 13.9322 18.2934 14.2073 18.9578C14.4825 19.6223 14.9484 20.1903 15.5463 20.59C16.1441 20.9897 16.8471 21.2033 17.5663 21.2036C18.5309 21.2009 19.4552 20.8164 20.1371 20.1342C20.819 19.4519 21.2031 18.5274 21.2053 17.5628Z" fill="#383434"/>
<path d="M6.51879 9.44306C6.51845 9.62015 6.46568 9.79317 6.36711 9.9403C6.26855 10.0874 6.12862 10.2021 5.96498 10.2697C5.80134 10.3374 5.62132 10.3551 5.44763 10.3206C5.27394 10.2861 5.11435 10.201 4.98901 10.0759C4.86367 9.95075 4.77819 9.79134 4.74335 9.61771C4.70851 9.44408 4.72588 9.26403 4.79325 9.10026C4.86063 8.93649 4.97501 8.79634 5.12194 8.6975C5.26888 8.59866 5.4418 8.54555 5.61888 8.54487C5.85726 8.54487 6.0859 8.63944 6.25461 8.80784C6.42333 8.97623 6.51834 9.20469 6.51879 9.44306Z" fill="#383434"/>
<path d="M9.53561 10.3395C9.35846 10.3409 9.18488 10.2897 9.03679 10.1925C8.88869 10.0952 8.77273 9.95632 8.70354 9.79323C8.63434 9.63014 8.61501 9.45021 8.648 9.27615C8.68099 9.10209 8.76481 8.94171 8.88888 8.81525C9.01295 8.68879 9.17171 8.60193 9.3451 8.56562C9.5185 8.52932 9.69877 8.54521 9.86315 8.61128C10.0275 8.67735 10.1686 8.79064 10.2687 8.93685C10.3687 9.08306 10.4232 9.25563 10.4252 9.43277C10.4271 9.67086 10.3345 9.89997 10.1677 10.0699C10.001 10.2399 9.77369 10.3368 9.53561 10.3395Z" fill="#383434"/>
<path d="M14.3335 9.44478C14.3328 9.62187 14.2797 9.79479 14.1809 9.94173C14.082 10.0887 13.9419 10.203 13.7781 10.2704C13.6143 10.3378 13.4343 10.3552 13.2607 10.3203C13.087 10.2855 12.9276 10.2 12.8025 10.0747C12.6774 9.94931 12.5922 9.78973 12.5577 9.61604C12.5232 9.44235 12.5409 9.26232 12.6086 9.09868C12.6763 8.93504 12.7909 8.79511 12.9381 8.69655C13.0852 8.59799 13.2582 8.54521 13.4353 8.54487C13.6737 8.54532 13.9021 8.64034 14.0705 8.80905C14.2389 8.97777 14.3335 9.2064 14.3335 9.44478Z" fill="#383434"/>
<path d="M17.3538 10.3395C17.1766 10.3399 17.0033 10.2877 16.8558 10.1896C16.7082 10.0916 16.5931 9.95198 16.5248 9.7885C16.4565 9.62502 16.4382 9.44498 16.4722 9.27111C16.5062 9.09724 16.5909 8.93733 16.7157 8.81158C16.8405 8.68583 16.9998 8.59988 17.1734 8.56457C17.347 8.52926 17.5272 8.54618 17.6912 8.6132C17.8552 8.68021 17.9956 8.79431 18.0948 8.9411C18.194 9.08788 18.2475 9.26076 18.2485 9.43792C18.249 9.676 18.1551 9.90457 17.9874 10.0736C17.8197 10.2425 17.5918 10.3382 17.3538 10.3395Z" fill="#383434"/>
<path d="M5.6137 12.4496C5.7907 12.448 5.96423 12.4987 6.11242 12.5955C6.26061 12.6923 6.37683 12.8308 6.44642 12.9936C6.51602 13.1563 6.53587 13.3361 6.50348 13.5101C6.4711 13.6841 6.38792 13.8446 6.26443 13.9715C6.14095 14.0983 5.98269 14.1857 5.80959 14.2227C5.6365 14.2597 5.45632 14.2447 5.29177 14.1795C5.12722 14.1142 4.98566 14.0017 4.88494 13.8562C4.78422 13.7106 4.72884 13.5385 4.72579 13.3615C4.7242 13.2433 4.74591 13.126 4.78967 13.0162C4.83344 12.9064 4.8984 12.8063 4.98086 12.7217C5.06331 12.637 5.16163 12.5694 5.27022 12.5227C5.3788 12.476 5.49552 12.4512 5.6137 12.4496Z" fill="#383434"/>
<path d="M9.53389 14.2426C9.3568 14.2436 9.18339 14.1921 9.03552 14.0947C8.88766 13.9973 8.77196 13.8582 8.70303 13.6951C8.6341 13.532 8.61502 13.3521 8.64821 13.1781C8.68139 13.0042 8.76534 12.844 8.88948 12.7177C9.01362 12.5914 9.17238 12.5047 9.34574 12.4685C9.51909 12.4324 9.69927 12.4484 9.86355 12.5145C10.0278 12.5806 10.1688 12.6939 10.2688 12.8401C10.3688 12.9862 10.4232 13.1588 10.4252 13.3358C10.4271 13.5742 10.3342 13.8036 10.1671 13.9736C10 14.1436 9.77226 14.2403 9.53389 14.2426Z" fill="#383434"/>
<path d="M6.51871 17.2714C6.51497 17.4485 6.45888 17.6204 6.35752 17.7656C6.25616 17.9108 6.11408 18.0227 5.94919 18.0873C5.78429 18.1518 5.60397 18.1661 5.43098 18.1283C5.25799 18.0905 5.10007 18.0023 4.97715 17.8748C4.85423 17.7473 4.7718 17.5863 4.74028 17.4121C4.70875 17.2378 4.72953 17.0582 4.8 16.8957C4.87046 16.7333 4.98747 16.5953 5.13624 16.4993C5.28501 16.4032 5.4589 16.3534 5.63595 16.3561C5.87419 16.361 6.10077 16.4601 6.26619 16.6316C6.4316 16.8031 6.52239 17.0332 6.51871 17.2714Z" fill="#383434"/>
<path d="M9.53049 18.1491C9.35341 18.1494 9.18019 18.0973 9.03269 17.9993C8.8852 17.9013 8.77003 17.7618 8.70171 17.5984C8.6334 17.435 8.615 17.2551 8.64885 17.0812C8.68269 16.9074 8.76726 16.7475 8.89188 16.6217C9.01651 16.4959 9.1756 16.4098 9.34909 16.3743C9.52258 16.3388 9.7027 16.3555 9.86672 16.4222C10.0307 16.489 10.1713 16.6028 10.2707 16.7494C10.3701 16.8959 10.4239 17.0686 10.4253 17.2457C10.4257 17.484 10.3319 17.7127 10.1642 17.882C9.99656 18.0512 9.76873 18.1472 9.53049 18.1491Z" fill="#383434"/>
<path d="M18.4627 16.6818C18.6341 16.6818 18.7833 16.6732 18.9238 16.6818C19.154 16.6954 19.3701 16.7973 19.5272 16.9661C19.6843 17.135 19.7702 17.3579 19.7672 17.5885C19.766 17.8157 19.6774 18.0336 19.5197 18.1971C19.362 18.3605 19.1473 18.4569 18.9204 18.4662C18.449 18.4833 17.9776 18.485 17.508 18.4662C17.2875 18.4596 17.0781 18.3682 16.9232 18.2112C16.7684 18.0541 16.68 17.8434 16.6766 17.6228C16.6612 16.9817 16.6612 16.3372 16.6766 15.6962C16.6867 15.4663 16.7851 15.2492 16.9513 15.0901C17.1175 14.931 17.3387 14.8422 17.5688 14.8422C17.7989 14.8422 18.0201 14.931 18.1863 15.0901C18.3525 15.2492 18.4509 15.4663 18.461 15.6962C18.4747 15.9961 18.4627 16.3235 18.4627 16.6818Z" fill="#383434"/>
</svg>
