<svg width="20" height="20" viewBox="0 0 20 20" fill="none" xmlns="http://www.w3.org/2000/svg">
<path d="M19.0625 19.9999H0.9375C0.65625 19.8879 0.379687 19.7619 0.220312 19.4884C0.128646 19.3311 0.0723958 19.153 0 18.9843C0 15.5728 0 12.1614 0 8.74989C0.308854 7.88948 0.579167 7.7025 1.51562 7.7025C7.21094 7.7025 12.9068 7.7025 18.6021 7.7025C18.6802 7.7025 18.7583 7.70041 18.8365 7.70406C19.363 7.72958 19.7911 8.05771 19.9391 8.54677C19.9594 8.61448 19.9797 8.68166 20 8.74937V18.9837C19.9276 19.1525 19.8714 19.3301 19.7802 19.4879C19.6214 19.7624 19.3432 19.8869 19.0625 19.9994V19.9999ZM3.97708 10.0337C3.61927 10.0337 3.26094 10.0311 2.90313 10.0343C2.35208 10.039 1.93281 10.4327 1.91875 10.9843C1.90417 11.5629 1.90469 12.1431 1.91875 12.7218C1.93177 13.2723 2.35312 13.6723 2.90156 13.6749C3.62396 13.6785 4.34635 13.6791 5.06875 13.6749C5.59219 13.6712 6.00833 13.2848 6.02344 12.7629C6.04063 12.1582 6.0401 11.5525 6.02344 10.9478C6.00885 10.4244 5.59531 10.0421 5.07031 10.0358C4.70573 10.0317 4.34167 10.0348 3.97708 10.0348V10.0337ZM4.71823 17.4541V16.3025H1.85156V17.4541H4.71875H4.71823ZM6.33646 16.2968V17.4504H9.19427V16.2968H6.33646ZM13.6698 16.303H10.8057V17.4504H13.6698V16.303ZM15.2859 16.2994V17.4457H18.1505V16.2994H15.2859Z" fill="white"/>
<path d="M12.6174 0C12.9622 0.0953125 13.2148 0.321354 13.4596 0.569792C14.2044 1.32448 14.9575 2.07083 15.7179 2.83073C15.683 2.87552 15.656 2.91719 15.6226 2.9526C14.5341 4.10833 13.4455 5.26458 12.3518 6.4151C12.2882 6.48177 12.1794 6.54323 12.0919 6.54375C9.90544 6.55104 7.71898 6.54948 5.53252 6.54896C5.49502 6.54896 5.45752 6.54479 5.38721 6.54063C5.43929 6.47865 5.47106 6.4349 5.50856 6.3974C7.5096 4.39531 9.50856 2.39063 11.5185 0.397396C11.6909 0.226563 11.9367 0.130729 12.1487 0C12.3049 0 12.4612 0 12.6174 0Z" fill="white"/>
<path d="M16.5303 3.68704C16.847 4.00319 17.1491 4.30527 17.4632 4.61882C17.346 4.74486 17.2194 4.88288 17.0913 5.01882C16.646 5.49225 16.2007 5.96569 15.7527 6.436C15.7069 6.48444 15.6392 6.54277 15.5809 6.54329C15.0178 6.55163 14.4543 6.54798 13.834 6.54798C14.759 5.56621 15.647 4.6235 16.5303 3.68652V3.68704Z" fill="white"/>
<path d="M17.2891 6.50636C17.6255 6.14907 17.962 5.79178 18.2786 5.45532C18.6786 5.85636 19.0708 6.24907 19.4036 6.58293H17.3115C17.3042 6.55741 17.2964 6.53188 17.2891 6.50636Z" fill="white"/>
<path d="M4.86579 11.2058V12.5011H3.09912V11.2058H4.86579Z" fill="white"/>
<path d="M16.99 9.32957C17.0166 9.45936 16.9334 9.53943 16.8507 9.62227C16.2708 10.2017 15.6961 10.7866 15.1093 11.3582C14.9824 11.482 14.9939 11.5395 15.1135 11.6564C15.7053 12.2349 16.2842 12.8258 16.8732 13.4071C17.007 13.5396 17.0309 13.6892 16.9638 13.8452C16.9008 13.9916 16.7573 14.0141 16.6106 13.9934C16.503 13.9782 16.4414 13.8949 16.3715 13.825C15.7972 13.2511 15.2197 12.68 14.6523 12.0992C14.5405 11.985 14.4849 11.9813 14.3713 12.0978C13.8044 12.679 13.2269 13.2497 12.6525 13.824C12.5877 13.8889 12.5302 13.9699 12.4364 13.9883C12.2856 14.0178 12.1495 13.9953 12.0552 13.8484C11.9656 13.7085 11.9946 13.587 12.0925 13.4711C12.132 13.4246 12.1771 13.3827 12.2203 13.339C12.7887 12.7697 13.3538 12.1972 13.9285 11.6343C14.0407 11.5248 14.0256 11.471 13.9239 11.3706C13.3294 10.7843 12.7413 10.1916 12.1514 9.60064C12.0309 9.48007 11.9408 9.35305 12.0474 9.1754C12.1748 8.96324 12.4079 8.94391 12.6061 9.14043C13.1823 9.71294 13.7593 10.2841 14.3254 10.8662C14.4642 11.0089 14.5415 11.0301 14.6923 10.8727C15.2335 10.3094 15.7926 9.76264 16.3449 9.21038C16.3936 9.1616 16.441 9.11097 16.4957 9.06909C16.6028 8.98671 16.7219 8.97843 16.8405 9.04194C16.9514 9.10131 17.0098 9.19427 16.9904 9.32819L16.99 9.32957Z" fill="#F42A41"/>
</svg>
