<svg width="18" height="20" viewBox="0 0 18 20" fill="none" xmlns="http://www.w3.org/2000/svg">
<path d="M2.63158 3.15789H12.6316V2.10526C12.6316 1.54691 12.4098 1.01143 12.015 0.616616C11.6202 0.221802 11.0847 0 10.5263 0H2.10526C1.54691 0 1.01143 0.221802 0.616616 0.616616C0.221802 1.01143 0 1.54691 0 2.10526V17.8947C0 18.4531 0.221802 18.9886 0.616616 19.3834C1.01143 19.7782 1.54691 20 2.10526 20H10.5263C11.0847 20 11.6202 19.7782 12.015 19.3834C12.4098 18.9886 12.6316 18.4531 12.6316 17.8947V15.2632H2.63158C2.49199 15.2632 2.35812 15.2077 2.25942 15.109C2.16071 15.0103 2.10526 14.8764 2.10526 14.7368V3.68421C2.10526 3.54462 2.16071 3.41076 2.25942 3.31206C2.35812 3.21335 2.49199 3.15789 2.63158 3.15789ZM6.78947 18.6842H5.73684C5.45766 18.6842 5.18992 18.5733 4.99252 18.3759C4.79511 18.1785 4.68421 17.9108 4.68421 17.6316C4.68421 17.3524 4.79511 17.0847 4.99252 16.8873C5.18992 16.6898 5.45766 16.5789 5.73684 16.5789H6.78947C7.06865 16.5789 7.33639 16.6898 7.53379 16.8873C7.7312 17.0847 7.8421 17.3524 7.8421 17.6316C7.8421 17.9108 7.7312 18.1785 7.53379 18.3759C7.33639 18.5733 7.06865 18.6842 6.78947 18.6842Z" fill="white"/>
<path d="M16.3158 4.47369H4.73684C4.45766 4.47369 4.18992 4.58459 3.99251 4.782C3.79511 4.97941 3.6842 5.24715 3.6842 5.52633V12.8947C3.6842 13.1739 3.79511 13.4417 3.99251 13.6391C4.18992 13.8365 4.45766 13.9474 4.73684 13.9474H16.3158C16.595 13.9474 16.8627 13.8365 17.0601 13.6391C17.2575 13.4417 17.3684 13.1739 17.3684 12.8947V5.52633C17.3684 5.24715 17.2575 4.97941 17.0601 4.782C16.8627 4.58459 16.595 4.47369 16.3158 4.47369ZM7.1 5.7316C7.30819 5.7316 7.5117 5.79332 7.6848 5.90898C7.85791 6.02465 7.99283 6.18905 8.0725 6.3814C8.15217 6.57374 8.17301 6.78539 8.1324 6.98958C8.09178 7.19377 7.99153 7.38132 7.84431 7.52854C7.6971 7.67575 7.50955 7.77601 7.30536 7.81662C7.10117 7.85724 6.88952 7.8364 6.69717 7.75673C6.50483 7.67706 6.34043 7.54213 6.22476 7.36902C6.1091 7.19592 6.04736 6.99242 6.04736 6.78423C6.04528 6.64511 6.07079 6.50696 6.12242 6.37777C6.17406 6.24857 6.25078 6.13089 6.34818 6.03154C6.44558 5.93218 6.56171 5.85312 6.68985 5.79893C6.81799 5.74473 6.9556 5.71647 7.09473 5.71579L7.1 5.7316ZM7.9421 12.0474H6.6842C6.50972 12.0474 6.34238 11.9781 6.219 11.8547C6.09562 11.7313 6.02631 11.564 6.02631 11.3895C6.02631 11.215 6.09562 11.0477 6.219 10.9243C6.34238 10.8009 6.50972 10.7316 6.6842 10.7316H7.9421C8.11658 10.7316 8.28392 10.8009 8.4073 10.9243C8.53068 11.0477 8.59999 11.215 8.59999 11.3895C8.59999 11.564 8.53068 11.7313 8.4073 11.8547C8.28392 11.9781 8.11658 12.0474 7.9421 12.0474ZM11.2947 12.0474H10.0368C9.86236 12.0474 9.69502 11.9781 9.57164 11.8547C9.44826 11.7313 9.37894 11.564 9.37894 11.3895C9.37894 11.215 9.44826 11.0477 9.57164 10.9243C9.69502 10.8009 9.86236 10.7316 10.0368 10.7316H11.2947C11.4692 10.7316 11.6365 10.8009 11.7599 10.9243C11.8833 11.0477 11.9526 11.215 11.9526 11.3895C11.9526 11.564 11.8833 11.7313 11.7599 11.8547C11.6365 11.9781 11.4692 12.0474 11.2947 12.0474ZM15.0211 12.0474H13.3947C13.2203 12.0474 13.0529 11.9781 12.9295 11.8547C12.8062 11.7313 12.7368 11.564 12.7368 11.3895C12.7368 11.215 12.8062 11.0477 12.9295 10.9243C13.0529 10.8009 13.2203 10.7316 13.3947 10.7316H15.0211C15.1955 10.7316 15.3629 10.8009 15.4863 10.9243C15.6096 11.0477 15.6789 11.215 15.6789 11.3895C15.6789 11.564 15.6096 11.7313 15.4863 11.8547C15.3629 11.9781 15.1955 12.0474 15.0211 12.0474ZM15.0211 7.43159H10.0368C9.86236 7.43159 9.69502 7.36227 9.57164 7.23889C9.44826 7.11551 9.37894 6.94818 9.37894 6.77369C9.37894 6.59921 9.44826 6.43187 9.57164 6.30849C9.69502 6.18511 9.86236 6.1158 10.0368 6.1158H15.0211C15.1955 6.1158 15.3629 6.18511 15.4863 6.30849C15.6096 6.43187 15.6789 6.59921 15.6789 6.77369C15.6789 6.94818 15.6096 7.11551 15.4863 7.23889C15.3629 7.36227 15.1955 7.43159 15.0211 7.43159Z" fill="white"/>
</svg>
