<svg width="20" height="20" viewBox="0 0 20 20" fill="none" xmlns="http://www.w3.org/2000/svg">
<path d="M19.0625 19.9999H0.9375C0.65625 19.8879 0.379687 19.7619 0.220312 19.4884C0.128646 19.3311 0.0723958 19.153 0 18.9843C0 15.5728 0 12.1614 0 8.74989C0.308854 7.88948 0.579167 7.7025 1.51562 7.7025C7.21094 7.7025 12.9068 7.7025 18.6021 7.7025C18.6802 7.7025 18.7583 7.70041 18.8365 7.70406C19.363 7.72958 19.7911 8.05771 19.9391 8.54677C19.9594 8.61448 19.9797 8.68166 20 8.74937V18.9837C19.9276 19.1525 19.8714 19.3301 19.7802 19.4879C19.6214 19.7624 19.3432 19.8869 19.0625 19.9994V19.9999ZM3.97708 10.0337C3.61927 10.0337 3.26094 10.0311 2.90313 10.0343C2.35208 10.039 1.93281 10.4327 1.91875 10.9843C1.90417 11.5629 1.90469 12.1431 1.91875 12.7218C1.93177 13.2723 2.35312 13.6723 2.90156 13.6749C3.62396 13.6785 4.34635 13.6791 5.06875 13.6749C5.59219 13.6712 6.00833 13.2848 6.02344 12.7629C6.04063 12.1582 6.0401 11.5525 6.02344 10.9478C6.00885 10.4244 5.59531 10.0421 5.07031 10.0358C4.70573 10.0317 4.34167 10.0348 3.97708 10.0348V10.0337ZM4.71823 17.4541V16.3025H1.85156V17.4541H4.71875H4.71823ZM6.33646 16.2968V17.4504H9.19427V16.2968H6.33646ZM13.6698 16.303H10.8057V17.4504H13.6698V16.303ZM15.2859 16.2994V17.4457H18.1505V16.2994H15.2859Z" fill="white"/>
<path d="M12.6174 0C12.9622 0.0953125 13.2148 0.321354 13.4596 0.569792C14.2044 1.32448 14.9575 2.07083 15.7179 2.83073C15.683 2.87552 15.656 2.91719 15.6226 2.9526C14.5341 4.10833 13.4455 5.26458 12.3518 6.4151C12.2882 6.48177 12.1794 6.54323 12.0919 6.54375C9.90544 6.55104 7.71898 6.54948 5.53252 6.54896C5.49502 6.54896 5.45752 6.54479 5.38721 6.54063C5.43929 6.47865 5.47106 6.4349 5.50856 6.3974C7.5096 4.39531 9.50856 2.39063 11.5185 0.397396C11.6909 0.226563 11.9367 0.130729 12.1487 0C12.3049 0 12.4612 0 12.6174 0Z" fill="white"/>
<path d="M16.5303 3.68704C16.847 4.00319 17.1491 4.30527 17.4632 4.61882C17.346 4.74486 17.2194 4.88288 17.0913 5.01882C16.646 5.49225 16.2007 5.96569 15.7527 6.436C15.7069 6.48444 15.6392 6.54277 15.5809 6.54329C15.0178 6.55163 14.4543 6.54798 13.834 6.54798C14.759 5.56621 15.647 4.6235 16.5303 3.68652V3.68704Z" fill="white"/>
<path d="M17.2891 6.50636C17.6255 6.14907 17.962 5.79178 18.2786 5.45532C18.6786 5.85636 19.0708 6.24907 19.4036 6.58293H17.3115C17.3042 6.55741 17.2964 6.53188 17.2891 6.50636Z" fill="white"/>
<path d="M4.86579 11.2058V12.5011H3.09912V11.2058H4.86579Z" fill="white"/>
</svg>
