<svg width="66" height="66" viewBox="0 0 66 66" fill="none" xmlns="http://www.w3.org/2000/svg">
<path d="M33 4.125C27.2891 4.125 21.7064 5.81849 16.9579 8.99132C12.2095 12.1641 8.50847 16.6738 6.32299 21.95C4.13751 27.2262 3.56569 33.032 4.67984 38.6332C5.79399 44.2344 8.54406 49.3795 12.5823 53.4177C16.6205 57.4559 21.7656 60.206 27.3668 61.3202C32.968 62.4343 38.7738 61.8625 44.05 59.677C49.3262 57.4915 53.8359 53.7906 57.0087 49.0421C60.1815 44.2936 61.875 38.7109 61.875 33C61.875 25.3419 58.8328 17.9974 53.4177 12.5823C48.0026 7.16718 40.6581 4.125 33 4.125ZM28.875 44.5294L18.5625 34.2169L21.8419 30.9375L28.875 37.9706L44.1581 22.6875L47.4499 25.9586L28.875 44.5294Z" fill="white"/>
</svg>
