<svg width="189" height="189" viewBox="0 0 189 189" fill="none" xmlns="http://www.w3.org/2000/svg">
<path d="M18.8039 150.519C15.9339 147.522 14.0206 143.873 11.9902 140.327C6.63694 130.974 3.26318 120.888 1.39565 110.304C0.174373 103.378 -0.293781 96.3507 0.184551 89.3487C0.912225 78.6626 3.06981 68.2461 7.31373 58.3386C10.8147 50.1662 15.2011 42.518 20.7986 35.5822C28.8845 25.5677 38.558 17.5175 49.8802 11.3603C59.7623 5.99176 70.2703 2.54675 81.3432 0.989627C88.0195 0.0482291 94.7569 -0.124784 101.555 0.394256C109.997 1.04051 118.159 2.71467 126.103 5.50325C136.148 9.03476 145.297 14.1997 153.607 20.8811C162.013 27.6439 169.112 35.572 174.755 44.7417C181.101 55.0564 185.548 66.1242 187.502 78.1588C188.53 84.4738 189.187 90.799 188.953 97.1852C188.571 107.52 186.78 117.591 183.096 127.305C180.058 135.33 176.139 142.861 171.056 149.771C170.842 150.061 170.516 150.275 170.242 150.524C169.865 150.102 169.468 149.7 169.122 149.257C160.217 137.904 149.348 128.918 136.387 122.598C117.849 113.555 98.3647 110.711 78.0051 114.308C60.2915 117.443 44.7508 125.076 31.3321 137.029C26.7371 141.126 22.6458 145.705 18.8039 150.514V150.519ZM94.65 27.5269C74.4532 27.5014 58.022 43.841 57.9915 63.9717C57.966 84.1634 74.3005 100.605 94.4312 100.635C114.613 100.666 131.059 84.3211 131.09 64.1905C131.12 44.0039 114.77 27.5523 94.6449 27.5269H94.65Z" fill="#DDDDDD"/>
<path d="M18.8037 150.519C22.6456 145.71 26.7318 141.131 31.3319 137.034C44.7507 125.081 60.2914 117.448 78.0049 114.313C98.3645 110.711 117.844 113.56 136.387 122.603C149.348 128.923 160.217 137.909 169.122 149.262C169.468 149.705 169.87 150.107 170.241 150.529C168.735 153.425 166.486 155.755 164.313 158.106C148.823 174.894 129.777 185.269 107.122 188.058C74.8194 192.037 47.351 181.789 24.8948 158.228C22.6405 155.862 20.4066 153.425 18.8037 150.519Z" fill="black"/>
<path d="M94.6496 27.5269C114.77 27.5523 131.125 44.0039 131.094 64.1905C131.064 84.3161 114.617 100.666 94.4358 100.635C74.3103 100.605 57.9707 84.1634 57.9961 63.9717C58.0216 43.841 74.4579 27.5065 94.6547 27.5269H94.6496Z" fill="black"/>
</svg>
