<svg width="20" height="20" viewBox="0 0 20 20" fill="none" xmlns="http://www.w3.org/2000/svg">
<path d="M0.00211838 0.673329C0.178302 0.171762 0.54125 -0.0144736 1.06028 0.000869727C1.80099 0.0199166 2.5417 0.00510217 3.27818 0.00563125C3.77975 0.00563125 4.05963 0.207211 4.221 0.686028C4.46296 1.40275 4.70316 2.12036 4.9416 2.83885C5.0908 3.28487 5.23577 3.38909 5.70718 3.38909C10.1299 3.38909 14.5527 3.38909 18.9754 3.38909C19.1202 3.38312 19.2651 3.39683 19.4061 3.42983C19.8823 3.56528 20.1124 4.05097 19.9463 4.5536C19.5537 5.74085 19.1587 6.9274 18.7612 8.11324L17.7485 11.148C17.5824 11.647 17.3189 11.839 16.7988 11.839H8.00233C7.54414 11.839 7.39389 11.9575 7.28437 12.4035C7.23887 12.5893 7.18702 12.7739 7.14522 12.9591C7.12776 13.0213 7.12427 13.0866 7.13503 13.1503C7.14578 13.2141 7.1705 13.2746 7.20742 13.3277C7.24434 13.3807 7.29253 13.425 7.34855 13.4572C7.40457 13.4894 7.46703 13.5088 7.53145 13.5141C7.62316 13.5239 7.71542 13.5276 7.80763 13.5252C11.0689 13.5252 14.3299 13.5252 17.5908 13.5252C17.8247 13.5252 18.0501 13.5437 18.2479 13.6908C18.3835 13.7923 18.4862 13.9315 18.5432 14.091C18.6002 14.2504 18.609 14.4231 18.5686 14.5876C18.5259 14.7514 18.4347 14.8985 18.307 15.0095C18.1792 15.1206 18.0209 15.1904 17.8527 15.2098C17.7807 15.2178 17.7083 15.2219 17.6358 15.222C14.3202 15.222 11.0064 15.222 7.6944 15.222C6.59551 15.222 5.74422 14.5516 5.49238 13.5083C5.40455 13.1458 5.43947 12.7914 5.52306 12.4326C5.62147 12.0041 5.73469 11.5745 5.77596 11.139C5.80083 10.8872 5.73417 10.61 5.65322 10.3666C4.75414 7.64818 3.84905 4.93224 2.93798 2.21877C2.80677 1.82619 2.63746 1.70292 2.22531 1.70239H0.918481C0.465589 1.70239 0.216397 1.53467 0.0365098 1.11194C0.0263067 1.09624 0.014023 1.08201 0 1.06961L0.00211838 0.673329Z" fill="white"/>
<path d="M6.49657 19.4456C6.08178 19.334 5.70984 19.1557 5.43471 18.8107C5.21927 18.5403 5.09174 18.2105 5.06929 17.8655C5.04685 17.5205 5.13055 17.1769 5.30914 16.8809C5.48774 16.5849 5.75266 16.3507 6.06832 16.2097C6.38397 16.0687 6.73523 16.0277 7.07486 16.0923C7.40987 16.1586 7.7175 16.3233 7.95847 16.5653C8.19943 16.8073 8.3628 17.1157 8.42771 17.451C8.50249 17.8639 8.42161 18.29 8.20069 18.6468C7.97976 19.0036 7.63447 19.266 7.23147 19.3832C7.17062 19.4011 7.11136 19.4265 7.05105 19.4482L6.49657 19.4456Z" fill="white"/>
<path d="M16.6374 19.4456C16.2232 19.334 15.8507 19.1557 15.5756 18.8107C15.3601 18.5403 15.2326 18.2105 15.2102 17.8655C15.1877 17.5205 15.2714 17.1769 15.45 16.8809C15.6286 16.5849 15.8935 16.3507 16.2092 16.2097C16.5248 16.0687 16.8761 16.0277 17.2157 16.0923C17.5507 16.1586 17.8584 16.3233 18.0993 16.5653C18.3403 16.8073 18.5037 17.1157 18.5686 17.451C18.6434 17.8639 18.5626 18.2898 18.3418 18.6467C18.1209 19.0035 17.7758 19.2659 17.3729 19.3832C17.3115 19.4011 17.2522 19.4265 17.1919 19.4482L16.6374 19.4456Z" fill="white"/>
</svg>
