<svg width="20" height="20" viewBox="0 0 20 20" fill="none" xmlns="http://www.w3.org/2000/svg">
<path d="M0 6.03409H5.95156C4.57834 7.50799 4.03419 9.23283 4.4359 11.2259C4.70428 12.5124 5.41004 13.6628 6.4302 14.4765C7.48092 15.3314 8.78599 15.802 10.1339 15.812C11.1531 15.8005 12.1487 15.5008 13.0085 14.9467C13.9841 14.3685 14.7665 13.5079 15.2549 12.4757C15.7434 11.4435 15.9155 10.287 15.7493 9.15494C15.538 7.98681 14.9967 6.90576 14.1909 6.04275L17.5641 6.02832H20V6.21004C19.4558 6.21004 18.9971 6.49847 18.5185 6.71479C17.8277 6.99438 17.237 7.47964 16.8244 8.1064C16.4119 8.73317 16.1969 9.47194 16.208 10.225C16.2269 11.0008 16.4758 11.7528 16.9224 12.3834C17.369 13.0141 17.9926 13.4941 18.7122 13.7612C19.1396 13.9228 19.567 14.0727 20 14.2285V14.3179C18.2222 14.3179 16.4444 14.3179 14.6638 14.3179C14.2593 14.3179 14.1254 14.4304 14.1311 14.8544C14.151 16.5475 14.1311 18.2435 14.1311 20.0001C13.9364 19.8061 13.7984 19.5616 13.7322 19.2934C13.2536 18.0387 12.5071 17.0436 11.188 16.6052C10.3316 16.3385 9.40935 16.3901 8.58722 16.7508C7.76509 17.1114 7.09716 17.7574 6.7037 18.5723C6.49288 19.0107 6.2906 19.4549 6.08262 19.9078C5.91168 19.7953 5.98005 19.6626 5.98005 19.5588C5.98005 18.0301 5.98005 16.4985 5.98005 14.9698C5.98005 14.3035 5.98006 14.3093 5.34188 14.3093H0.131052C0.339315 14.1138 0.601894 13.988 0.883192 13.9487C2.32194 13.5045 3.36752 12.6536 3.77778 11.1307C4.0113 10.2329 3.9075 9.27923 3.48645 8.45441C3.06541 7.62959 2.35708 6.99225 1.49858 6.66576C1 6.48116 0.501421 6.30522 0.00569488 6.12351L0 6.03409Z" fill="#B3790D"/>
<path d="M14.148 0C14.148 1.99019 14.1432 3.98039 14.1337 5.97058C13.9258 5.80329 13.7206 5.63311 13.5098 5.47159C12.3926 4.63697 11.0173 4.23459 9.63262 4.33722C8.24791 4.43985 6.94517 5.04071 5.95996 6.03115V0.118259C6.02426 0.153991 6.0762 0.208805 6.1088 0.275327C6.1414 0.34185 6.15309 0.41689 6.14229 0.490341C6.08816 1.79406 7.80896 3.64292 9.38161 3.87655C11.2392 4.14768 12.8175 3.29968 13.5298 1.60946C13.7516 1.09044 13.9317 0.554136 14.0682 0.00576551L14.148 0Z" fill="#B3790D"/>
<path d="M5.9601 6.03119C6.94531 5.04074 8.24805 4.43988 9.63277 4.33725C11.0175 4.23462 12.3928 4.637 13.51 5.47162C13.7208 5.63315 13.9259 5.80333 14.1339 5.97062L14.2108 6.04849C15.0166 6.91151 15.5579 7.99256 15.7692 9.16069C15.9355 10.2928 15.7633 11.4493 15.2749 12.4815C14.7864 13.5136 14.0041 14.3742 13.0285 14.9524C12.1687 15.5065 11.173 15.8062 10.1538 15.8177C8.80591 15.8077 7.50085 15.3371 6.45012 14.4823C5.42997 13.6685 4.7242 12.5182 4.45582 11.2316C4.04272 9.22992 4.58688 7.50508 5.9601 6.03119ZM10.0427 5.4024C9.85754 5.44278 9.83189 5.61007 9.78916 5.76871C9.55554 6.68016 9.31053 7.58584 9.09116 8.49729C9.07223 8.62971 9.01151 8.75239 8.91806 8.847C8.8246 8.94161 8.70343 9.00308 8.57263 9.02224C7.68659 9.24145 6.80626 9.48951 5.92307 9.72602C5.74643 9.77506 5.49572 9.76063 5.48717 10.0145C5.47862 10.2683 5.73788 10.2827 5.90597 10.3288C6.74358 10.5596 7.58403 10.7846 8.43018 10.9778C8.59655 10.9976 8.75164 11.073 8.87086 11.1922C8.99008 11.3113 9.0666 11.4673 9.0883 11.6355C9.28488 12.5209 9.5356 13.3949 9.76352 14.2746C9.80625 14.4448 9.81195 14.6727 10.0484 14.6525C10.2393 14.6525 10.2735 14.4506 10.3162 14.2862C10.547 13.3891 10.8091 12.5036 11.0057 11.6008C11.0263 11.4478 11.096 11.3059 11.2041 11.197C11.3122 11.088 11.4527 11.0181 11.604 10.998C12.5071 10.7702 13.4017 10.5308 14.302 10.2971C14.4587 10.2539 14.6439 10.2337 14.641 10.0087C14.6382 9.78371 14.4615 9.77506 14.3276 9.74621C13.4359 9.5472 12.5755 9.22126 11.6695 9.07705C11.5004 9.06195 11.3417 8.9878 11.2206 8.86731C11.0995 8.74682 11.0235 8.58747 11.0057 8.41653C10.8063 7.50219 10.5498 6.59651 10.3219 5.68795C10.2877 5.54085 10.2478 5.40529 10.0427 5.4024ZM11.2991 7.49931C11.285 7.78691 11.3826 8.06868 11.5711 8.28431C11.7596 8.49994 12.024 8.6323 12.3077 8.65305C12.5909 8.65739 12.865 8.55148 13.0733 8.35719C13.2817 8.1629 13.4084 7.89505 13.4273 7.60892C13.4305 7.32976 13.3291 7.05975 13.1435 6.8532C12.958 6.64665 12.7021 6.51887 12.4273 6.49556C12.1472 6.48117 11.8726 6.57801 11.6619 6.76546C11.4512 6.95292 11.321 7.2162 11.2991 7.49931ZM8.90312 7.60027C8.90615 7.45716 8.88101 7.31486 8.82917 7.18169C8.77734 7.04852 8.69985 6.92712 8.6012 6.82457C8.50256 6.72202 8.38475 6.64037 8.25463 6.58438C8.1245 6.52839 7.98468 6.49918 7.84329 6.49845C7.56837 6.50595 7.30627 6.61774 7.10892 6.81166C6.91157 7.00558 6.79338 7.26748 6.77777 7.54546C6.77436 7.68699 6.79858 7.82781 6.84904 7.95985C6.89949 8.09189 6.97519 8.21254 7.0718 8.3149C7.1684 8.41726 7.28401 8.49931 7.412 8.55635C7.53999 8.61338 7.67784 8.64429 7.81765 8.64728C7.95821 8.65646 8.09912 8.63606 8.23151 8.58738C8.36389 8.5387 8.48488 8.46279 8.58686 8.36443C8.68883 8.26607 8.76959 8.14739 8.82402 8.01587C8.87845 7.88435 8.90538 7.74284 8.90312 7.60027ZM13.4387 12.4142C13.443 12.2723 13.4187 12.1309 13.3672 11.9988C13.3157 11.8666 13.238 11.7465 13.1391 11.6458C13.0402 11.5451 12.922 11.4659 12.7917 11.413C12.6615 11.3602 12.522 11.3348 12.3817 11.3384C12.1067 11.3424 11.8435 11.4523 11.6456 11.6457C11.4477 11.8391 11.3299 12.1015 11.3162 12.3796C11.3193 12.6658 11.4296 12.9402 11.6247 13.1474C11.8198 13.3545 12.0853 13.4791 12.3675 13.4959C12.6493 13.49 12.918 13.3742 13.1176 13.1727C13.3171 12.9712 13.4322 12.6995 13.4387 12.4142ZM8.89743 12.469C8.9016 12.3267 8.87773 12.1849 8.82723 12.052C8.77674 11.9191 8.7006 11.7977 8.60328 11.6949C8.50596 11.592 8.3894 11.5099 8.26038 11.4531C8.13137 11.3964 7.99249 11.3662 7.85184 11.3643C7.57554 11.3698 7.31159 11.4813 7.11329 11.6761C6.915 11.871 6.79712 12.1348 6.78346 12.4142C6.78042 12.5569 6.80561 12.6988 6.85755 12.8315C6.90948 12.9642 6.98711 13.085 7.08586 13.1869C7.18462 13.2887 7.30251 13.3696 7.43259 13.4246C7.56267 13.4797 7.70231 13.5078 7.84329 13.5074C7.98036 13.5112 8.1168 13.4872 8.24454 13.4368C8.37228 13.3863 8.48874 13.3105 8.58702 13.2137C8.68529 13.1168 8.7634 13.0011 8.81671 12.8732C8.87003 12.7453 8.89748 12.6079 8.89743 12.469Z" fill="#FEFEFE"/>
<path d="M10.0429 5.4021C10.248 5.4021 10.2879 5.54055 10.3278 5.69053C10.5557 6.5991 10.8121 7.50478 11.0116 8.41911C11.0294 8.59006 11.1054 8.74941 11.2265 8.8699C11.3475 8.99039 11.5062 9.06453 11.6754 9.07963C12.5814 9.22385 13.4418 9.54977 14.3335 9.74879C14.4674 9.77763 14.6469 9.81802 14.6469 10.0113C14.6469 10.2045 14.4645 10.2507 14.3078 10.2997C13.4076 10.5333 12.513 10.7727 11.6098 11.0006C11.4586 11.0207 11.3181 11.0906 11.21 11.1996C11.1019 11.3085 11.0321 11.4504 11.0116 11.6034C10.815 12.5062 10.5529 13.3917 10.3221 14.2887C10.2794 14.4532 10.2452 14.6406 10.0543 14.6551C9.81213 14.6752 9.80643 14.4474 9.76939 14.2772C9.54147 13.3975 9.29076 12.5235 9.09418 11.638C9.07248 11.4699 8.99595 11.3139 8.87673 11.1947C8.75751 11.0756 8.60242 11.0002 8.43605 10.9804C7.58135 10.7872 6.74945 10.5622 5.91184 10.3314C5.74375 10.2853 5.48164 10.2824 5.49304 10.017C5.50443 9.75168 5.75229 9.77476 5.92893 9.72861C6.81212 9.49209 7.69246 9.24404 8.5785 9.02483C8.7093 9.00567 8.83047 8.94419 8.92392 8.84958C9.01738 8.75497 9.0781 8.6323 9.09702 8.49988C9.31639 7.58843 9.56141 6.68275 9.79503 5.77129C9.83777 5.60977 9.85771 5.44248 10.0429 5.4021ZM13.5415 10.0315C12.738 9.81802 12.0486 9.61611 11.3534 9.45459C11.1796 9.43098 11.0185 9.34963 10.8952 9.22331C10.772 9.09699 10.6937 8.93283 10.6725 8.75658C10.5272 8.05857 10.3221 7.37498 10.1027 6.57025C9.88619 7.40094 9.67537 8.10184 9.53292 8.81427C9.51139 8.97557 9.43763 9.12509 9.32317 9.23939C9.20872 9.3537 9.06004 9.42634 8.90044 9.44594C8.19104 9.61611 7.47594 9.81513 6.67822 10.0228C7.46455 10.2362 8.13976 10.4555 8.82921 10.5997C9.01037 10.6248 9.17784 10.7111 9.30452 10.8446C9.4312 10.9781 9.50967 11.1509 9.52722 11.3352C9.68392 12.0274 9.8805 12.7081 10.097 13.5042C10.3135 12.6793 10.5187 11.9784 10.6668 11.266C10.6846 11.1038 10.7549 10.9522 10.8667 10.8348C10.9786 10.7174 11.1257 10.6408 11.2851 10.617C11.9973 10.4583 12.7039 10.2478 13.5415 10.0315Z" fill="#B3790D"/>
<path d="M11.2992 7.49921C11.3182 7.21193 11.4487 6.94394 11.6622 6.75373C11.8757 6.56351 12.1549 6.46653 12.4388 6.48393C12.7135 6.50724 12.9694 6.63501 13.155 6.84157C13.3405 7.04812 13.4419 7.31812 13.4388 7.59728C13.4198 7.88341 13.2931 8.15126 13.0847 8.34555C12.8764 8.53984 12.6023 8.64575 12.3191 8.64141C12.0354 8.62354 11.7699 8.49406 11.5793 8.28062C11.3887 8.06718 11.2882 7.78673 11.2992 7.49921Z" fill="#B3790D"/>
<path d="M8.90334 7.60035C8.90628 7.74238 8.88025 7.8835 8.82686 8.01487C8.77348 8.14625 8.69388 8.26506 8.59307 8.36388C8.49226 8.46269 8.3724 8.53938 8.24097 8.58915C8.10955 8.63892 7.96939 8.66071 7.82927 8.65314C7.68946 8.65014 7.55161 8.61924 7.42362 8.56221C7.29563 8.50517 7.18002 8.42312 7.08342 8.32076C6.98681 8.2184 6.91111 8.09775 6.86065 7.96571C6.8102 7.83368 6.78597 7.69285 6.78938 7.55132C6.80342 7.27424 6.91941 7.01252 7.1145 6.81767C7.30959 6.62283 7.56966 6.50898 7.84351 6.49854C7.9849 6.49927 8.12472 6.52848 8.25485 6.58447C8.38497 6.64046 8.50278 6.72211 8.60143 6.82466C8.70007 6.92721 8.77756 7.0486 8.82939 7.18178C8.88123 7.31495 8.90637 7.45725 8.90334 7.60035Z" fill="#B3790D"/>
<path d="M13.4384 12.4143C13.4319 12.6996 13.3168 12.9713 13.1173 13.1728C12.9177 13.3743 12.649 13.4901 12.3672 13.496C12.085 13.4792 11.8195 13.3546 11.6244 13.1475C11.4293 12.9403 11.319 12.6659 11.3159 12.3797C11.3296 12.1016 11.4474 11.8392 11.6453 11.6458C11.8432 11.4524 12.1064 11.3425 12.3814 11.3385C12.5217 11.3349 12.6612 11.3603 12.7914 11.4131C12.9217 11.466 13.0399 11.5452 13.1388 11.6459C13.2377 11.7467 13.3153 11.8667 13.3669 11.9989C13.4184 12.131 13.4427 12.2724 13.4384 12.4143Z" fill="#B3790D"/>
<path d="M8.89741 12.469C8.89747 12.6078 8.87002 12.7452 8.8167 12.8731C8.76339 13.001 8.68528 13.1168 8.587 13.2136C8.48872 13.3104 8.37227 13.3863 8.24453 13.4367C8.11678 13.4872 7.98035 13.5112 7.84328 13.5073C7.7023 13.5077 7.56266 13.4796 7.43258 13.4246C7.3025 13.3695 7.18461 13.2887 7.08585 13.1868C6.98709 13.085 6.90947 12.9641 6.85753 12.8314C6.8056 12.6987 6.78041 12.5569 6.78345 12.4142C6.7971 12.1347 6.91498 11.8709 7.11328 11.6761C7.31158 11.4812 7.57552 11.3698 7.85182 11.3643C7.99248 11.3661 8.13136 11.3963 8.26037 11.453C8.38938 11.5098 8.50595 11.592 8.60327 11.6948C8.70059 11.7976 8.77672 11.919 8.82722 12.0519C8.87772 12.1849 8.90158 12.3266 8.89741 12.469Z" fill="#B3790D"/>
<path d="M13.5415 10.0319C12.7096 10.254 12.003 10.4588 11.2851 10.6087C11.1257 10.6326 10.9786 10.7092 10.8667 10.8266C10.7549 10.944 10.6846 11.0956 10.6668 11.2577C10.513 11.9701 10.3079 12.671 10.097 13.496C9.88905 12.6999 9.69247 12.0192 9.52722 11.3269C9.50967 11.1427 9.4312 10.9698 9.30452 10.8363C9.17785 10.7028 9.01037 10.6166 8.82922 10.5914C8.13976 10.453 7.46455 10.2338 6.67822 10.0146C7.48449 9.80401 8.19104 9.60499 8.90044 9.4377C9.06004 9.4181 9.20872 9.34546 9.32317 9.23115C9.43763 9.11684 9.51139 8.96733 9.53292 8.80603C9.68107 8.09359 9.89189 7.3927 10.1027 6.56201C10.3135 7.36674 10.5187 8.05033 10.6725 8.74834C10.6937 8.92458 10.772 9.08875 10.8952 9.21507C11.0185 9.34139 11.1796 9.42274 11.3534 9.44635C12.0429 9.61653 12.7324 9.81843 13.5415 10.0319Z" fill="#FEFEFE"/>
</svg>
