<svg width="15" height="15" viewBox="0 0 15 15" fill="none" xmlns="http://www.w3.org/2000/svg">
<path d="M2.60355 12.184C2.47429 12.1959 2.34398 12.1801 2.22104 12.1378C2.09809 12.0955 1.98513 12.0276 1.88949 11.9383C1.79385 11.8491 1.71758 11.7405 1.66558 11.6195C1.61359 11.4985 1.58701 11.3679 1.58753 11.2358C1.63413 10.5152 1.69946 9.79463 1.79267 9.08352C1.8411 8.87534 1.92287 8.67673 2.0349 8.49568C2.07394 8.43841 2.12107 8.38733 2.17473 8.344L9.78962 0.597624C9.97186 0.408414 10.1893 0.258115 10.4294 0.155497C10.6694 0.0528787 10.9273 0 11.1877 0C11.4481 0 11.7058 0.0528787 11.9459 0.155497C12.186 0.258115 12.4035 0.408414 12.5858 0.597624C12.7629 0.777772 12.9492 0.948445 13.117 1.13807C13.4448 1.49025 13.6275 1.9568 13.6275 2.44177C13.6275 2.92674 13.4448 3.39329 13.117 3.74547C12.8653 4.02043 12.6044 4.27646 12.3434 4.55143C10.0879 6.84593 7.82298 9.13091 5.57673 11.4349C5.4129 11.6228 5.21399 11.7757 4.99159 11.8848C4.76918 11.9938 4.52771 12.0569 4.28117 12.0702C3.69398 12.0512 3.10686 12.1366 2.60355 12.184ZM9.21175 2.70253H9.15578L2.91108 9.07403C2.85001 9.14271 2.811 9.22872 2.79924 9.32056C2.79924 9.72826 2.72469 10.136 2.69673 10.5437C2.69673 10.7144 2.69673 10.8945 2.69673 11.0747H2.85511C3.38638 11.0178 3.91772 10.9798 4.44899 10.9134C4.55632 10.8904 4.65393 10.8341 4.72854 10.7523C6.77905 8.68531 8.82031 6.59939 10.8615 4.52295L10.9733 4.40918L9.21175 2.70253ZM11.7096 3.65068L12.3061 3.03436C12.385 2.955 12.4477 2.86051 12.4904 2.75635C12.5332 2.65219 12.5552 2.54041 12.5552 2.42753C12.5552 2.31466 12.5332 2.20294 12.4904 2.09877C12.4477 1.99461 12.385 1.90013 12.3061 1.82077C12.129 1.62166 11.9426 1.43199 11.7562 1.25185C11.6331 1.13431 11.4762 1.05987 11.3085 1.0394C11.1409 1.01894 10.9712 1.05351 10.8242 1.13807C10.5362 1.36727 10.2622 1.61428 10.004 1.87765L11.7096 3.65068Z" fill="#0F5DA8"/>
<path d="M7.50602 14.9811H0.636817C0.508982 14.9797 0.382625 14.954 0.264088 14.9053C0.167892 14.8552 0.0908911 14.7739 0.0452973 14.6743C-0.000296474 14.5747 -0.0118876 14.4624 0.0124161 14.3553C0.0289139 14.2538 0.075025 14.1598 0.144851 14.0854C0.214677 14.0109 0.304907 13.9596 0.403804 13.9381C0.478098 13.929 0.553307 13.929 0.627601 13.9381H14.3753C14.7668 13.9381 15.0091 14.1467 14.9997 14.4881C14.9937 14.6171 14.9426 14.7398 14.8554 14.8337C14.7682 14.9276 14.6507 14.9866 14.5244 15.0001H7.50602V14.9811Z" fill="#0F5DA8"/>
</svg>
