<svg width="18" height="20" viewBox="0 0 18 20" fill="none" xmlns="http://www.w3.org/2000/svg">
<path d="M12.1786 0.000978934C12.4232 0.11689 12.4907 0.31643 12.4902 0.57417C12.4863 3.89985 12.4863 7.22553 12.4902 10.5512L12.4902 10.8246L12.7347 10.8246C14.1276 10.8246 15.5205 10.8246 16.9133 10.8246C16.9976 10.8206 17.082 10.827 17.1647 10.8437C17.2318 10.8583 17.2942 10.8896 17.3459 10.9348C17.3977 10.9799 17.4372 11.0374 17.4607 11.102C17.4843 11.1665 17.4912 11.2359 17.4807 11.3038C17.4703 11.3717 17.4428 11.4358 17.4009 11.4902C17.3538 11.5524 17.3014 11.6105 17.2444 11.6638C14.5545 14.3596 11.8651 17.0549 9.17623 19.7497C8.84268 20.0842 8.66221 20.0837 8.32524 19.7467L0.250686 11.6712C0.214006 11.6345 0.175859 11.5983 0.141134 11.5597C0.0139763 11.4193 -0.0452049 11.2623 0.0398933 11.0779C0.124992 10.8936 0.273671 10.8241 0.464898 10.8236C0.913865 10.8236 1.36299 10.8236 1.81229 10.8236L4.9844 10.8236L4.9844 10.5669C4.9844 7.24118 4.98326 3.9155 4.98097 0.58982C4.98097 0.335504 5.03526 0.132051 5.26464 1.06838e-06L12.1786 0.000978934Z" fill="#00C12B"/>
</svg>
