<svg width="18" height="20" viewBox="0 0 18 20" fill="none" xmlns="http://www.w3.org/2000/svg">
<path d="M5.30684 19.999C5.06231 19.8831 4.99481 19.6836 4.9953 19.4258C4.99922 16.1001 4.99922 12.7745 4.9953 9.44879V9.1754H4.75077C3.35789 9.1754 1.96502 9.1754 0.572147 9.1754C0.487888 9.17939 0.403457 9.17298 0.320764 9.15632C0.25365 9.14172 0.191318 9.11038 0.139562 9.06523C0.0878068 9.02007 0.0483099 8.96256 0.0247394 8.89805C0.00116885 8.83354 -0.00570755 8.76411 0.00474847 8.69623C0.0152045 8.62834 0.0426536 8.5642 0.0845448 8.50977C0.131704 8.44757 0.18406 8.38949 0.241048 8.33615C2.93094 5.64039 5.62034 2.94512 8.30925 0.250345C8.64279 -0.0841796 8.82326 -0.0836906 9.16023 0.253279L17.2348 8.32882C17.2715 8.3655 17.3096 8.40169 17.3443 8.44032C17.4715 8.58069 17.5307 8.73768 17.4456 8.92206C17.3605 9.10644 17.2118 9.17589 17.0206 9.17638C16.5716 9.17638 16.1225 9.17638 15.6732 9.17638H12.5011V9.43314C12.5011 12.7588 12.5022 16.0845 12.5045 19.4102C12.5045 19.6645 12.4502 19.868 12.2208 20L5.30684 19.999Z" fill="#E6492D"/>
</svg>
