<svg width="30" height="35" viewBox="0 0 30 35" fill="none" xmlns="http://www.w3.org/2000/svg">
<path d="M16.0572 0C16.6235 0.0832755 17.1939 0.155725 17.756 0.263151C21.4043 0.961832 24.3839 2.78057 26.7081 5.66773C28.3736 7.73879 29.3871 10.1071 29.7893 12.7295C29.9001 13.449 29.9259 14.181 30 15.0104C29.7727 14.8647 29.6402 14.7531 29.4879 14.6856C29.0448 14.4899 28.5985 14.2992 28.1446 14.1319C27.9781 14.0719 27.8948 14.0178 27.879 13.8246C27.7008 11.8158 27.0567 9.87615 25.9978 8.15981C24.939 6.44347 23.4944 4.99768 21.779 3.93727C20.1332 2.90326 18.2696 2.26582 16.3353 2.07523C14.1052 1.84268 11.8529 2.1945 9.79984 3.0961C7.74682 3.9977 5.96376 5.41804 4.62596 7.21749C3.44907 8.77792 2.65084 10.5905 2.29424 12.5121C2.21096 12.9568 2.16849 13.4099 2.09105 13.8562C2.08235 13.9042 2.0637 13.9498 2.03631 13.9901C2.00891 14.0304 1.97338 14.0645 1.93199 14.0902C1.30826 14.3575 0.677863 14.6082 0 14.8838C0.0607911 14.1901 0.0832743 13.4532 0.196529 12.7295C0.688687 9.57585 2.03692 6.83359 4.26537 4.54434C6.54157 2.20541 9.29438 0.758641 12.5238 0.204026C12.9901 0.12075 13.4615 0.0674532 13.9295 0H16.0572Z" fill="white"/>
<path d="M23.7685 27.9606C22.4644 28.2304 21.3993 27.8882 20.584 26.8547C20.1889 26.3549 19.9773 25.7347 19.9844 25.0976C19.9794 22.372 19.9695 19.6472 19.9844 16.9224C19.9844 16.1307 20.299 15.3713 20.8589 14.8114C21.4187 14.2515 22.1781 13.937 22.9699 13.937C23.7616 13.937 24.521 14.2515 25.0809 14.8114C25.6408 15.3713 25.9553 16.1307 25.9553 16.9224C25.9711 20.3892 25.9761 23.8568 25.9553 27.3235C25.9395 29.572 24.0225 31.7272 21.7824 31.9645C20.6098 32.0886 19.4173 32.0394 18.234 32.0403C17.9317 32.0403 17.7768 32.1127 17.6419 32.4017C17.1148 33.5242 15.8482 34.1863 14.6298 34.0197C13.3307 33.8424 12.289 32.8722 12.0633 31.6297C11.8268 30.3298 12.4147 29.0623 13.5381 28.4494C15.1037 27.595 16.9466 28.1996 17.7127 29.8193C17.7593 29.9167 17.8792 30.0458 17.97 30.0458C19.1217 30.0458 20.2759 30.0691 21.4226 29.99C22.5144 29.9093 23.5578 28.9582 23.7685 27.9606Z" fill="white"/>
<path d="M10.0056 21.0087C10.0056 22.3278 10.0056 23.6461 10.0056 24.9643C9.99889 27.1611 8.03442 28.5668 5.96252 27.8623C4.8891 27.4967 4.04719 26.3908 4.03636 25.1975C4.01221 22.4061 4.00389 19.613 4.03636 16.8216C4.05635 15.2203 5.42956 13.9536 7.02845 13.962C7.8071 13.9644 8.55385 14.2716 9.10887 14.8177C9.66388 15.3639 9.98305 16.1056 9.99806 16.8841C10.0222 18.2573 10.0031 19.6322 10.0031 21.0054L10.0056 21.0087Z" fill="white"/>
<path d="M2.0594 16.1638V25.8537C1.03512 25.6205 0.0757767 24.4622 0.050794 23.3238C0.0163735 21.7865 0.0163735 20.2484 0.050794 18.7095C0.0741112 17.5711 0.99431 16.4461 2.0594 16.1638Z" fill="white"/>
<path d="M27.9281 16.1446C28.6984 16.3944 29.2805 16.8874 29.6211 17.6144C29.8053 17.9902 29.912 18.3991 29.935 18.8169C29.9725 20.2767 29.9625 21.7382 29.9459 23.1997C29.9325 24.3389 29.1356 25.4348 28.0772 25.8287C28.0282 25.8433 27.9784 25.8549 27.9281 25.8637V16.1446Z" fill="white"/>
</svg>
