<svg width="20" height="17" viewBox="0 0 20 17" fill="none" xmlns="http://www.w3.org/2000/svg">
<path d="M1.70068 5.05429C2.00038 4.83247 2.27176 4.63188 2.54313 4.4313C4.52183 2.97294 6.50171 1.51576 8.47923 0.0538563C8.57362 -0.015758 8.63144 -0.0192977 8.72701 0.0514965C10.9334 1.68094 13.1422 3.30685 15.351 4.93276C15.397 4.96697 15.4418 5.00237 15.5079 5.05429H1.70068ZM7.33236 3.14756C7.33236 3.85079 7.89636 4.41832 8.5984 4.42068C9.3087 4.42304 9.88332 3.8555 9.88095 3.1511C9.87978 2.4526 9.30752 1.87681 8.61256 1.87327C7.90698 1.87091 7.33236 2.44198 7.33236 3.14638V3.14756Z" fill="white"/>
<path d="M16.0013 15.2853C13.9199 15.2853 12.2397 13.6122 12.2397 11.5368C12.2397 9.46721 13.9199 7.78467 15.9883 7.78467C18.0555 7.78467 19.7416 9.46957 19.7392 11.5356C19.738 13.6004 18.059 15.2853 16.0013 15.2865V15.2853ZM16.039 14.4051C16.2125 14.385 16.3883 14.3744 16.5594 14.3426C17.1658 14.2293 17.6838 13.9461 18.1121 13.5001C18.1912 13.4175 18.2289 13.3231 18.177 13.2134C18.1263 13.1096 18.0343 13.0777 17.9233 13.0872C17.8573 13.0931 17.7912 13.1013 17.7251 13.1013C16.4154 13.1108 15.3287 12.0536 15.3087 10.7427C15.2992 10.1185 15.5045 9.5675 15.921 9.09908C15.9942 9.01767 16.032 8.92799 15.9765 8.82298C15.921 8.71561 15.8267 8.68493 15.7122 8.69673C14.3294 8.84776 13.2509 9.99817 13.1813 11.3952C13.0999 13.0234 14.4072 14.3945 16.039 14.4051ZM16.4142 11.7491C16.4083 11.9521 16.5724 12.0642 16.7482 11.9863C16.9263 11.9072 17.0986 11.8188 17.2779 11.7421C17.3204 11.7244 17.3841 11.7255 17.4266 11.7421C17.5882 11.8093 17.7452 11.886 17.9033 11.9615C18.0024 12.0099 18.1015 12.0406 18.2006 11.9686C18.2997 11.8966 18.2997 11.794 18.2844 11.6842C18.2596 11.5108 18.2372 11.3374 18.223 11.1627C18.2195 11.1155 18.2396 11.0554 18.2702 11.02C18.3906 10.8784 18.5227 10.745 18.6466 10.6046C18.7953 10.4347 18.7339 10.2507 18.5157 10.2046C18.3328 10.1657 18.1487 10.1374 17.967 10.0937C17.9151 10.0808 17.8573 10.0383 17.8301 9.99345C17.7346 9.8377 17.6555 9.67251 17.5635 9.51441C17.449 9.31736 17.2461 9.31854 17.134 9.51677C17.042 9.67841 16.9582 9.84596 16.8626 10.0064C16.839 10.0465 16.7871 10.0831 16.7411 10.0937C16.5594 10.1362 16.3753 10.1645 16.1924 10.2023C15.9682 10.2495 15.9045 10.4383 16.0556 10.6082C16.1771 10.745 16.3022 10.8784 16.4319 11.007C16.485 11.0601 16.4992 11.1108 16.4886 11.184C16.4603 11.3763 16.439 11.5698 16.4166 11.7491H16.4142Z" fill="white"/>
<path d="M7.70062 11.9851C7.64281 11.9851 7.59679 11.9851 7.5496 11.9851C7.37733 11.9886 7.2912 12.0724 7.29002 12.2447C7.28884 12.4193 7.29002 12.5951 7.29002 12.7697C7.29002 12.8075 7.28648 12.8452 7.28412 12.8901H5.72901C5.72901 12.6907 5.72901 12.4972 5.72901 12.3037C5.72901 12.0512 5.66529 11.9874 5.41279 11.9851C5.38211 11.9851 5.35144 11.9815 5.3125 11.9804V7.42948C5.35852 7.42948 5.39981 7.42948 5.44229 7.42948C5.63933 7.42712 5.72311 7.34217 5.72429 7.14159C5.72429 6.93982 5.72429 6.73806 5.72429 6.52686H7.27822C7.27822 6.72744 7.26996 6.92566 7.28176 7.12153C7.28766 7.20766 7.32306 7.30087 7.37261 7.37167C7.39975 7.4106 7.48234 7.41768 7.54134 7.4283C7.58971 7.43656 7.64163 7.43066 7.70062 7.43066V11.9863V11.9851Z" fill="white"/>
<path d="M9.52002 7.42944C9.58255 7.42944 9.63565 7.4318 9.68993 7.42944C9.83977 7.42354 9.92945 7.33033 9.93063 7.1734C9.93181 6.95984 9.93063 6.74746 9.93063 6.52563H11.4928C11.4928 6.7451 11.4952 6.96102 11.4928 7.17812C11.4916 7.28313 11.5318 7.36101 11.625 7.40466C11.6615 7.42236 11.7076 7.4259 11.7489 7.42826C11.7984 7.4318 11.8491 7.42826 11.9164 7.42826C11.9164 7.47782 11.9164 7.51911 11.9164 7.55923C11.9164 8.50905 11.9199 9.45887 11.9129 10.4087C11.9129 10.5656 11.8539 10.7214 11.8409 10.8795C11.8173 11.1615 11.8055 11.4447 11.7925 11.7278C11.789 11.8081 11.7996 11.8895 11.8043 11.9768C11.7583 11.9803 11.7241 11.9815 11.691 11.9862C11.5731 12.0039 11.4964 12.0936 11.4952 12.2222C11.4928 12.4393 11.4952 12.6576 11.4952 12.8853H9.93299C9.93299 12.7591 9.93299 12.6293 9.93299 12.4983C9.93299 12.4122 9.93299 12.3272 9.93299 12.2411C9.93063 12.0712 9.84449 11.9862 9.67223 11.9827C9.62621 11.9827 9.57901 11.9827 9.52238 11.9827V7.42944H9.52002Z" fill="white"/>
<path d="M14.027 15.2876H1.4657C1.4657 15.0965 1.44446 14.9089 1.47042 14.7284C1.50346 14.5006 1.6946 14.3649 1.93176 14.3649C2.53941 14.3638 3.14588 14.3649 3.75353 14.3649C6.75049 14.3649 9.74626 14.3649 12.7432 14.3638C12.8305 14.3638 12.8931 14.3862 12.9556 14.4523C13.2494 14.7614 13.588 15.0151 13.9597 15.2263C13.9857 15.2416 14.0116 15.257 14.0376 15.2723C14.034 15.2782 14.0317 15.2841 14.0281 15.29L14.027 15.2876Z" fill="white"/>
<path d="M9.99892 15.7466C13.2059 15.7466 16.4129 15.7466 19.6199 15.7466C19.6777 15.7466 19.7367 15.7443 19.7945 15.749C19.9113 15.7596 19.9951 15.8505 19.9998 15.9649C20.0045 16.0829 19.9325 16.1761 19.8145 16.1962C19.765 16.2044 19.7142 16.2044 19.6635 16.2044C13.2142 16.2044 6.7648 16.2044 0.315451 16.2044C0.106608 16.2044 0.00749613 16.1372 0.000416711 15.9897C-0.00666271 15.8635 0.0771104 15.762 0.20218 15.7478C0.248196 15.7431 0.295393 15.7455 0.342589 15.7455C3.56137 15.7455 6.78014 15.7455 9.99892 15.7455V15.7466Z" fill="white"/>
<path d="M2.64355 6.05256V5.52515H14.5688V6.05256H2.64355Z" fill="white"/>
<path d="M2.64355 13.893V13.3573H2.77334C5.87177 13.3573 8.9702 13.3573 12.0698 13.355C12.1654 13.355 12.2138 13.3845 12.2562 13.4706C12.3247 13.6122 12.412 13.7455 12.4969 13.893H2.64355Z" fill="white"/>
<path d="M3.9624 7.4353H4.83789V11.9744H3.9624V7.4353Z" fill="white"/>
<path d="M9.04069 11.9803H8.16992V7.43652H9.04069V11.9803Z" fill="white"/>
<path d="M12.3706 7.43408H13.2508C13.2508 7.50252 13.2508 7.57095 13.2508 7.63821C13.2508 7.84351 13.2544 8.04999 13.2485 8.2553C13.2485 8.30013 13.2284 8.35677 13.1965 8.38626C12.8933 8.66354 12.629 8.97032 12.4119 9.31957C12.4048 9.33137 12.393 9.34081 12.3706 9.36558V7.43408Z" fill="white"/>
<path d="M5.26376 6.52686V6.96342H3.54346V6.52686H5.26376Z" fill="white"/>
<path d="M5.26258 12.4534V12.8899H3.54346V12.4534H5.26258Z" fill="white"/>
<path d="M7.74316 6.96228V6.52808H9.45992V6.96228H7.74316Z" fill="white"/>
<path d="M11.9507 6.96452V6.52441H13.6651V6.96452H11.9507Z" fill="white"/>
<path d="M7.74316 12.8912V12.4546H9.4611V12.8912H7.74316Z" fill="white"/>
<path d="M9.4222 3.14637C9.42338 3.59119 9.06232 3.95814 8.6175 3.96286C8.1597 3.96758 7.78803 3.60417 7.78567 3.14873C7.78213 2.69801 8.15498 2.32516 8.61042 2.32398C9.05643 2.3228 9.42102 2.69211 9.4222 3.14637Z" fill="white"/>
<path d="M15.2045 9.3042C14.2051 11.1496 15.4298 13.31 17.3212 13.5448C16.7844 13.953 15.7614 14.1241 14.8812 13.6451C13.9809 13.1554 13.4806 12.1006 13.6741 11.0859C13.8676 10.0688 14.6688 9.43517 15.2045 9.3042Z" fill="white"/>
<path d="M17.7837 11.3964C17.4911 11.1993 17.215 11.1686 16.9236 11.4058C17.0215 11.0601 16.9625 10.7887 16.6274 10.5976C16.815 10.5468 16.9814 10.5409 17.0923 10.4595C17.2056 10.3769 17.2658 10.2188 17.3484 10.0938C17.3472 10.0938 18.0268 10.5869 18.0469 10.6011C17.7625 10.7911 17.6587 11.0483 17.7826 11.3952L17.7837 11.3964Z" fill="white"/>
</svg>
