<svg width="52" height="62" viewBox="0 0 52 62" fill="none" xmlns="http://www.w3.org/2000/svg">
<g id="Group 785">
<path id="Vector" d="M51.6572 57.8382C51.0226 57.8382 50.4845 57.8382 49.9464 57.8382C45.5312 57.8382 41.1161 57.8382 36.7147 57.8382C36.218 57.8382 35.8455 57.9624 35.4592 58.3073C29.885 63.2743 21.5928 63.2191 16.0601 58.2107C15.8393 58.0037 15.4668 57.8658 15.1633 57.8658C10.3618 57.8382 5.56033 57.852 0.772651 57.852H0C0 57.576 0 57.3691 0 57.1621C0 51.0499 0 44.9377 0 38.8254C0 35.9694 0.979611 33.4859 3.03541 31.5404C5.42235 29.2777 7.91967 27.1391 10.417 24.9177C14.2527 30.1607 19.3715 33.0306 25.8424 33.0306C32.2996 33.0306 37.4046 30.1607 41.2264 24.9177C43.2409 26.7114 45.2415 28.4636 47.2145 30.2573C48.0147 30.9748 48.815 31.706 49.4911 32.5339C50.9398 34.3275 51.6434 36.4247 51.6572 38.7427C51.6572 44.8963 51.6572 51.0499 51.6572 57.2035C51.6572 57.3967 51.6572 57.576 51.6572 57.852V57.8382ZM15.4944 47.4764C15.4668 53.1333 20.1027 57.8106 25.7596 57.852C31.4303 57.8934 36.1352 53.2437 36.1628 47.5592C36.1904 41.9023 31.5545 37.225 25.8976 37.1836C20.2131 37.1422 15.5082 41.7919 15.4944 47.4764Z" fill="white"/>
<path id="Vector_2" d="M25.8825 0C33.8436 0 40.3007 6.48475 40.2869 14.4734C40.2731 22.4897 33.816 28.933 25.7997 28.9192C17.7697 28.9192 11.3539 22.4345 11.3677 14.3492C11.3815 6.41576 17.88 0 25.8825 0Z" fill="white"/>
<path id="Vector_3" d="M22.3223 54.1402C21.2323 53.0502 20.2803 52.0982 19.2593 51.0772C20.4458 49.9182 21.66 48.7317 22.9156 47.4899C21.66 46.2619 20.4596 45.0754 19.2593 43.9164C20.2803 42.9092 21.2323 41.9572 22.2671 40.9224C23.4261 42.1089 24.6126 43.3231 25.8406 44.5787C27.0686 43.3231 28.2413 42.1227 29.4003 40.9362C30.4213 41.9572 31.3733 42.9092 32.4081 43.9302C31.2078 45.103 30.0074 46.2757 28.738 47.5175C29.9936 48.7455 31.2078 49.932 32.3805 51.091C31.3733 52.0982 30.4075 53.0502 29.4279 54.0298C28.2827 52.8571 27.11 51.6705 25.9096 50.4563C24.6678 51.7395 23.4675 52.9536 22.3085 54.1402H22.3223Z" fill="white"/>
</g>
</svg>
