<svg width="20" height="18" viewBox="0 0 20 18" fill="none" xmlns="http://www.w3.org/2000/svg">
<path d="M15.6882 7.76647H19.4118V4.76471C19.4118 4.48389 19.2878 4.21457 19.0672 4.016C18.8466 3.81744 18.5473 3.70588 18.2353 3.70588H3.82353C3.58951 3.70588 3.36509 3.62222 3.19962 3.47329C3.03414 3.32437 2.94118 3.12238 2.94118 2.91176C2.94118 2.70115 3.03414 2.49916 3.19962 2.35024C3.36509 2.20131 3.58951 2.11765 3.82353 2.11765H17.6471V1.05882C17.6471 0.778006 17.5231 0.508689 17.3025 0.310121C17.0819 0.111554 16.7826 0 16.4706 0H2.35294C1.7289 0 1.13042 0.223107 0.689159 0.620243C0.247897 1.01738 0 1.55601 0 2.11765V15.8824C0 16.444 0.247897 16.9826 0.689159 17.3798C1.13042 17.7769 1.7289 18 2.35294 18H18.2353C18.5473 18 18.8466 17.8884 19.0672 17.6899C19.2878 17.4913 19.4118 17.222 19.4118 16.9412V14.2941H15.6882C14.7257 14.2941 13.8025 13.95 13.1219 13.3374C12.4412 12.7248 12.0588 11.894 12.0588 11.0276C12.0588 10.1613 12.4412 9.33048 13.1219 8.7179C13.8025 8.10532 14.7257 7.76118 15.6882 7.76118V7.76647Z" fill="white"/>
<path d="M19.7059 9.08999H15.6882C15.1157 9.08999 14.5666 9.29469 14.1617 9.65906C13.7569 10.0234 13.5294 10.5176 13.5294 11.0329C13.5294 11.5482 13.7569 12.0424 14.1617 12.4068C14.5666 12.7712 15.1157 12.9759 15.6882 12.9759H19.7059C19.7839 12.9759 19.8587 12.948 19.9138 12.8983C19.969 12.8487 20 12.7814 20 12.7112V9.35469C20 9.28449 19.969 9.21716 19.9138 9.16752C19.8587 9.11788 19.7839 9.08999 19.7059 9.08999ZM16.1765 11.827C16.0019 11.827 15.8314 11.7805 15.6863 11.6932C15.5411 11.606 15.4281 11.4819 15.3613 11.3368C15.2945 11.1917 15.277 11.032 15.3111 10.878C15.3451 10.724 15.4291 10.5825 15.5525 10.4714C15.6759 10.3603 15.8332 10.2847 16.0043 10.2541C16.1755 10.2234 16.3529 10.2392 16.5141 10.2993C16.6754 10.3594 16.8132 10.4612 16.9101 10.5917C17.0071 10.7223 17.0588 10.8759 17.0588 11.0329C17.0588 11.2435 16.9658 11.4455 16.8004 11.5945C16.6349 11.7434 16.4105 11.827 16.1765 11.827Z" fill="white"/>
</svg>
