<svg width="20" height="20" viewBox="0 0 20 20" fill="none" xmlns="http://www.w3.org/2000/svg">
<path d="M0.00316306 10.0016C0.00316306 6.94608 0.00316306 3.89057 0.00316306 0.835055C0.00316306 0.141292 0.137066 0.0063346 0.828721 0.0063346C4.04238 0.00528025 7.25499 0.010552 10.4687 8.49303e-06C10.8271 -0.00104586 11.1002 0.0959545 11.3543 0.354271C12.6744 1.69119 14.0081 3.01545 15.3345 4.34499C15.6023 4.61385 15.8321 5.67031 15.6445 5.9708C15.4789 6.2365 15.1679 6.0541 14.9243 6.09522C14.7261 6.12896 14.6745 5.99189 14.7029 5.8369C14.7873 5.37299 14.5321 5.34135 14.1652 5.34874C13.1298 5.36771 12.0934 5.35822 11.057 5.35401C10.4708 5.3519 10.3232 5.19902 10.3221 4.60331C10.32 3.51416 10.3116 2.42607 10.3274 1.33693C10.3316 1.0396 10.2462 0.953143 9.94675 0.954197C7.08524 0.96474 4.22268 0.965795 1.36011 0.954197C1.03326 0.953143 0.948917 1.05014 0.948917 1.37067C0.958406 7.13059 0.957351 12.8905 0.949971 18.6504C0.949971 18.9383 1.01429 19.0469 1.32637 19.0469C5.66292 19.0374 10.0005 19.0384 14.3371 19.0458C14.6123 19.0458 14.7261 18.9594 14.6998 18.6842C14.6861 18.545 14.6977 18.4037 14.6977 18.2624C14.6977 17.6636 14.8706 17.4569 15.4557 17.3009C15.6497 17.2492 15.6624 17.3346 15.6613 17.478C15.6582 18.1454 15.6687 18.8128 15.6497 19.4792C15.6403 19.8092 15.4294 19.981 15.1004 19.9979C14.995 20.0032 14.8896 20 14.7841 20C10.1481 20 5.51321 20 0.877221 20C0.118087 20 0 19.8798 0 19.1154C0 16.0778 0 13.0392 0 10.0016H0.00316306ZM13.8616 4.40193C13.0002 3.53103 12.1409 2.66225 11.2742 1.78608C11.2742 2.55787 11.2763 3.35706 11.2721 4.15626C11.2721 4.33129 11.3311 4.40614 11.5146 4.40509C12.3117 4.39876 13.1077 4.40193 13.8605 4.40193H13.8616Z" fill="white"/>
<path d="M19.5865 11.2035C19.5992 11.9405 19.5834 12.6764 19.4136 13.3976C19.0952 14.7471 18.2211 15.4968 16.8347 15.5801C16.4973 15.6001 16.2664 15.6971 16.0376 15.967C15.4229 16.6924 14.5995 17.0551 13.6611 17.1627C13.4228 17.1901 13.1856 17.1722 13.0865 16.9117C12.9821 16.6365 13.1813 16.4984 13.3838 16.374C13.4586 16.3287 13.5303 16.277 13.5968 16.2211C13.7602 16.0841 13.9689 15.908 13.9289 15.715C13.8814 15.4831 13.6031 15.6054 13.4291 15.5875C12.0774 15.4462 11.2108 14.7081 10.9335 13.3638C10.652 11.9942 10.6773 10.6067 10.8955 9.23394C11.0821 8.06256 11.8191 7.34138 12.9568 7.04405C14.4244 6.66132 15.9037 6.64762 17.3671 7.043C18.6977 7.40253 19.343 8.21649 19.5032 9.57661C19.5665 10.1185 19.5908 10.6594 19.5844 11.2024L19.5865 11.2035ZM14.6817 16.0324C15.0823 15.8911 15.367 15.6592 15.5399 15.3682C15.8035 14.9243 16.1599 14.8463 16.6333 14.8336C17.8089 14.802 18.509 14.2453 18.6967 13.135C18.9044 11.9025 18.8907 10.651 18.704 9.41424C18.5744 8.55599 18.0409 8.00457 17.1963 7.78421C15.9016 7.44576 14.59 7.44365 13.2963 7.7452C12.1481 8.01195 11.6525 8.69095 11.5798 9.88553C11.5229 10.8144 11.5281 11.7433 11.5808 12.6722C11.661 14.0734 12.4064 14.8009 13.8213 14.8484C14.7028 14.8779 14.8894 15.1204 14.6785 16.0335L14.6817 16.0324Z" fill="white"/>
<path d="M7.63667 17.3472C6.16164 17.3472 4.6866 17.3324 3.21261 17.3567C2.8088 17.363 2.76346 17.1975 2.76135 16.8622C2.75819 16.5216 2.81512 16.3698 3.21261 16.3719C6.14477 16.3888 9.07692 16.3993 12.008 16.3687C12.7408 16.3613 12.3285 16.879 12.4108 17.1289C12.5457 17.5391 12.1377 17.3314 12.008 17.3335C10.5509 17.3545 9.09379 17.3472 7.63667 17.3472Z" fill="white"/>
<path d="M11.5977 6.84896C11.3141 7.14945 11.0674 7.39089 10.8449 7.65343C10.7247 7.79576 10.5866 7.80525 10.4263 7.80525C8.00341 7.80314 5.58156 7.79366 3.15866 7.81369C2.74114 7.81685 2.76645 7.60598 2.76855 7.32763C2.77066 7.05245 2.73692 6.83525 3.15866 6.83841C5.94848 6.85845 8.73829 6.84896 11.5966 6.84896H11.5977Z" fill="white"/>
<path d="M6.47468 12.57C5.36972 12.57 4.26476 12.5489 3.16191 12.5805C2.74228 12.5921 2.76547 12.3718 2.76969 12.0934C2.77391 11.8246 2.72962 11.5915 3.15558 11.5958C5.34653 11.6168 7.53852 11.6179 9.72947 11.5968C10.2682 11.5915 10.0616 11.9542 10.1101 12.2031C10.1702 12.5141 10.0236 12.5795 9.73579 12.5753C8.64876 12.5605 7.56172 12.5689 6.47468 12.5689V12.57Z" fill="white"/>
<path d="M10.8298 14.9528C8.21609 14.9528 5.64347 14.9475 3.07191 14.9581C2.62486 14.9602 2.79777 14.6502 2.7809 14.4467C2.76298 14.2359 2.69445 13.9955 3.08245 13.9976C5.43049 14.0113 7.77959 14.006 10.1287 14.0018C10.3069 14.0018 10.406 14.0429 10.4724 14.2295C10.5578 14.4689 10.697 14.6882 10.8309 14.9528H10.8298Z" fill="white"/>
<path d="M6.51894 9.25084C7.62284 9.25084 8.72781 9.24662 9.83171 9.25717C9.94769 9.25822 10.2471 9.16122 10.1512 9.4111C10.051 9.67363 10.3779 10.1871 9.8412 10.1934C7.58067 10.2208 5.31909 10.2029 3.0575 10.2071C2.61046 10.2071 2.80762 9.87818 2.77915 9.67785C2.74647 9.44906 2.73065 9.23608 3.09968 9.2424C4.23838 9.26349 5.37813 9.24978 6.51788 9.24978L6.51894 9.25084Z" fill="white"/>
<path d="M5.69838 5.35714C4.84119 5.35714 3.98295 5.33605 3.12681 5.36557C2.67344 5.38139 2.78731 5.09144 2.77255 4.84894C2.75779 4.58957 2.74514 4.38819 3.13208 4.39241C4.86333 4.41244 6.59563 4.41244 8.32688 4.39241C8.76443 4.38714 8.63264 4.66865 8.63475 4.87952C8.63686 5.09461 8.75494 5.37823 8.32055 5.36452C7.44649 5.33816 6.57138 5.35608 5.69732 5.35608L5.69838 5.35714Z" fill="white"/>
<path d="M14.6426 9.74846C14.6426 9.53864 14.6173 9.32566 14.6478 9.12112C14.6953 8.8027 14.9093 8.63401 15.2298 8.63928C15.5272 8.6435 15.6727 8.84277 15.6885 9.11163C15.7486 10.1101 15.6126 11.097 15.4808 12.0828C15.4555 12.2694 15.3374 12.4191 15.1339 12.4075C14.9283 12.3959 14.8471 12.2304 14.8292 12.0406C14.7564 11.2773 14.6869 10.5139 14.6162 9.75057C14.6246 9.75057 14.6331 9.74951 14.6415 9.74846H14.6426Z" fill="white"/>
<path d="M15.1496 14.1198C14.8396 14.086 14.6351 13.9363 14.6382 13.5947C14.6403 13.2373 14.8322 13.0443 15.1886 13.0528C15.5492 13.0612 15.7221 13.271 15.7073 13.6253C15.6926 13.97 15.4775 14.1039 15.1496 14.1198Z" fill="white"/>
</svg>
