<svg width="21" height="20" viewBox="0 0 21 20" fill="none" xmlns="http://www.w3.org/2000/svg">
<path d="M4.38808 5.21088V19.2527C4.38839 19.3362 4.41037 19.4182 4.45185 19.4907C4.49334 19.5632 4.55292 19.6237 4.62478 19.6662C4.69663 19.7088 4.77829 19.732 4.86179 19.7335C4.94528 19.7351 5.02776 19.7149 5.10114 19.6751L6.17073 19.0937C6.2416 19.0557 6.32073 19.0359 6.40111 19.0359C6.48148 19.0359 6.56062 19.0557 6.63148 19.0937L8.18377 19.9384C8.25482 19.9788 8.33515 20 8.41688 20C8.49862 20 8.57895 19.9788 8.65 19.9384L10.1968 19.0937C10.2677 19.0557 10.3468 19.0359 10.4272 19.0359C10.5076 19.0359 10.5867 19.0557 10.6575 19.0937L12.2043 19.9384C12.2754 19.9788 12.3557 20 12.4375 20C12.5192 20 12.5995 19.9788 12.6706 19.9384L14.2174 19.0937C14.2882 19.0557 14.3674 19.0359 14.4477 19.0359C14.5281 19.0359 14.6073 19.0557 14.6781 19.0937L15.7422 19.6751C15.8156 19.7149 15.8981 19.7351 15.9816 19.7335C16.0651 19.732 16.1468 19.7088 16.2186 19.6662C16.2905 19.6237 16.35 19.5632 16.3915 19.4907C16.433 19.4182 16.455 19.3362 16.4553 19.2527V5.21088H4.38808ZM9.08332 11.0196H8.05761C7.61239 11.0319 7.17999 10.8696 6.85283 10.5674C6.52567 10.2652 6.32969 9.84698 6.30677 9.40217C6.28385 8.95737 6.43581 8.52124 6.73017 8.18698C7.02453 7.85272 7.43795 7.64684 7.88208 7.61334V7.25133C7.88208 7.06949 7.95432 6.89509 8.0829 6.76651C8.21149 6.63793 8.38588 6.5657 8.56772 6.5657C8.74956 6.5657 8.92396 6.63793 9.05254 6.76651C9.18112 6.89509 9.25336 7.06949 9.25336 7.25133V7.59689H10.109C10.2909 7.59689 10.4653 7.66913 10.5938 7.79771C10.7224 7.92629 10.7947 8.10068 10.7947 8.28253C10.7947 8.46437 10.7224 8.63877 10.5938 8.76735C10.4653 8.89593 10.2909 8.96816 10.109 8.96816H8.05761C8.01275 8.96742 7.96819 8.97572 7.92659 8.99255C7.885 9.00937 7.84721 9.03439 7.81549 9.06612C7.78376 9.09785 7.75874 9.13563 7.74191 9.17723C7.72508 9.21882 7.71679 9.26338 7.71754 9.30825C7.71754 9.39844 7.75336 9.48494 7.81713 9.54871C7.88091 9.61249 7.96742 9.64832 8.05761 9.64832H9.08332C9.52765 9.63815 9.95841 9.8018 10.2839 10.1044C10.6094 10.4071 10.8039 10.8248 10.8261 11.2687C10.8482 11.7126 10.6963 12.1476 10.4026 12.4812C10.1088 12.8147 9.69649 13.0204 9.25336 13.0546V13.4111C9.25336 13.5929 9.18112 13.7673 9.05254 13.8959C8.92396 14.0245 8.74956 14.0967 8.56772 14.0967C8.38588 14.0967 8.21149 14.0245 8.0829 13.8959C7.95432 13.7673 7.88208 13.5929 7.88208 13.4111V13.071H7.0319C6.85006 13.071 6.67566 12.9988 6.54707 12.8702C6.41849 12.7416 6.34626 12.5672 6.34626 12.3854C6.34626 12.2035 6.41849 12.0291 6.54707 11.9006C6.67566 11.772 6.85006 11.6998 7.0319 11.6998H9.08332C9.17351 11.6998 9.26002 11.6639 9.3238 11.6001C9.38757 11.5364 9.42339 11.4499 9.42339 11.3597C9.42339 11.2695 9.38757 11.183 9.3238 11.1192C9.26002 11.0554 9.17351 11.0196 9.08332 11.0196ZM14.5355 16.8557H6.85637C6.67453 16.8557 6.50014 16.7835 6.37155 16.6549C6.24297 16.5263 6.17073 16.3519 6.17073 16.1701C6.17073 15.9883 6.24297 15.8139 6.37155 15.6853C6.50014 15.5567 6.67453 15.4845 6.85637 15.4845H14.5355C14.7174 15.4845 14.8917 15.5567 15.0203 15.6853C15.1489 15.8139 15.2211 15.9883 15.2211 16.1701C15.2211 16.3519 15.1489 16.5263 15.0203 16.6549C14.8917 16.7835 14.7174 16.8557 14.5355 16.8557ZM14.5355 14.1132H12.89C12.7081 14.1132 12.5337 14.041 12.4052 13.9124C12.2766 13.7838 12.2043 13.6094 12.2043 13.4276C12.2043 13.2457 12.2766 13.0713 12.4052 12.9427C12.5337 12.8142 12.7081 12.7419 12.89 12.7419H14.5355C14.7174 12.7419 14.8917 12.8142 15.0203 12.9427C15.1489 13.0713 15.2211 13.2457 15.2211 13.4276C15.2211 13.6094 15.1489 13.7838 15.0203 13.9124C14.8917 14.041 14.7174 14.1132 14.5355 14.1132ZM14.5355 11.3706H12.89C12.7081 11.3706 12.5337 11.2984 12.4052 11.1698C12.2766 11.0412 12.2043 10.8668 12.2043 10.685C12.2043 10.5032 12.2766 10.3288 12.4052 10.2002C12.5337 10.0716 12.7081 9.99937 12.89 9.99937H14.5355C14.7174 9.99937 14.8917 10.0716 15.0203 10.2002C15.1489 10.3288 15.2211 10.5032 15.2211 10.685C15.2211 10.8668 15.1489 11.0412 15.0203 11.1698C14.8917 11.2984 14.7174 11.3706 14.5355 11.3706ZM14.5355 8.62809H12.89C12.7081 8.62809 12.5337 8.55585 12.4052 8.42727C12.2766 8.29869 12.2043 8.1243 12.2043 7.94245C12.2043 7.76061 12.2766 7.58622 12.4052 7.45764C12.5337 7.32905 12.7081 7.25682 12.89 7.25682H14.5355C14.7174 7.25682 14.8917 7.32905 15.0203 7.45764C15.1489 7.58622 15.2211 7.76061 15.2211 7.94245C15.2211 8.1243 15.1489 8.29869 15.0203 8.42727C14.8917 8.55585 14.7174 8.62809 14.5355 8.62809Z" fill="white"/>
<path d="M18.6493 0H2.19404C1.61214 0 1.05408 0.231155 0.642618 0.642618C0.231155 1.05408 0 1.61214 0 2.19404V6.03361C0 6.61551 0.231155 7.17357 0.642618 7.58503C1.05408 7.99649 1.61214 8.22765 2.19404 8.22765H2.4683C2.54103 8.22765 2.61079 8.19875 2.66222 8.14732C2.71365 8.09589 2.74255 8.02613 2.74255 7.95339V4.11382C2.74255 4.04109 2.77145 3.97133 2.82288 3.91989C2.87431 3.86846 2.94407 3.83957 3.01681 3.83957H17.8266C17.8993 3.83957 17.9691 3.86846 18.0205 3.91989C18.0719 3.97133 18.1008 4.04109 18.1008 4.11382V7.95339C18.1008 8.02613 18.1297 8.09589 18.1812 8.14732C18.2326 8.19875 18.3023 8.22765 18.3751 8.22765H18.6493C19.2312 8.22765 19.7893 7.99649 20.2008 7.58503C20.6122 7.17357 20.8434 6.61551 20.8434 6.03361V2.19404C20.8434 1.61214 20.6122 1.05408 20.2008 0.642618C19.7893 0.231155 19.2312 0 18.6493 0Z" fill="white"/>
</svg>
