<svg width="20" height="23" viewBox="0 0 20 23" fill="none" xmlns="http://www.w3.org/2000/svg">
<path fill-rule="evenodd" clip-rule="evenodd" d="M19.976 6.18394L19.9767 6.20173C20.029 8.88657 20.0941 12.228 18.9433 15.2642C18.3124 16.9292 17.3577 18.3766 16.1059 19.5665C14.6808 20.9209 12.8146 21.9969 10.5591 22.7645C10.4853 22.7897 10.4084 22.8101 10.3307 22.8252C10.2212 22.8465 10.1106 22.8571 10.0003 22.8571C9.88988 22.8571 9.7795 22.8465 9.66984 22.8252C9.59207 22.8101 9.51574 22.7898 9.44227 22.7649C7.18415 21.9986 5.31594 20.9232 3.88961 19.5686C2.63727 18.3791 1.68256 16.932 1.05218 15.2673C-0.094261 12.2402 -0.0290367 8.90506 0.0234652 6.22527L0.0245403 6.18394C0.034754 5.96282 0.0417423 5.73054 0.0456845 5.47384C0.0648575 4.21338 1.09447 3.1709 2.38946 3.10062C5.08981 2.95379 7.17878 2.09686 8.96366 0.403747L8.97889 0.389622C9.56125 -0.129874 10.4394 -0.129874 11.0216 0.389622L11.0369 0.403747C12.8217 2.09686 14.9107 2.95379 17.6111 3.10045C18.9062 3.1709 19.9357 4.21338 19.9548 5.47367C19.959 5.73211 19.9658 5.96439 19.976 6.18394ZM4.14675 11.429C4.14675 14.57 6.77238 17.1253 9.9999 17.1253C13.2272 17.1253 15.8531 14.57 15.8531 11.429C15.8531 8.28792 13.2272 5.73265 9.9999 5.73265C6.77238 5.73265 4.14675 8.28792 4.14675 11.429Z" fill="white"/>
<path d="M6 9.42273L6.52778 9.18953L6.94404 10.0024C7.38932 9.15455 8.0669 8.55502 8.99839 8.226C9.78338 7.94849 10.584 7.92673 11.3853 8.15974C12.9314 8.60963 14.0273 9.98379 13.9995 11.583C13.9736 13.0738 12.86 14.4512 11.328 14.8634C9.72042 15.296 8.11073 14.6619 7.26874 13.5145L7.742 13.1983C8.32061 13.9329 9.08769 14.3581 10.054 14.4359C10.7671 14.4942 11.4285 14.3255 12.0223 13.95C13.1482 13.237 13.6836 11.9196 13.2729 10.6364C12.882 9.41787 11.6398 8.55443 10.2953 8.55968C8.90251 8.56493 7.87677 9.40213 7.49549 10.2285L8.41464 9.81121L8.66937 10.3103L6.86915 11.1296C6.85433 11.1024 6.84137 11.0795 6.82943 11.0561C6.5688 10.5435 6.30734 10.0308 6.04506 9.51815C6.03173 9.49538 6.01696 9.47337 6.00082 9.45227L6 9.42273Z" fill="white"/>
</svg>
