<svg width="16" height="18" viewBox="0 0 16 18" fill="none" xmlns="http://www.w3.org/2000/svg">
<path fill-rule="evenodd" clip-rule="evenodd" d="M4.5 8.99993C4.5 7.13901 6.01401 5.625 7.87507 5.625C9.73599 5.625 11.25 7.13901 11.25 8.99993C11.25 10.861 9.73599 12.375 7.87507 12.375C6.01401 12.375 4.5 10.861 4.5 8.99993ZM7.46099 10.7822L9.87884 8.36436C10.0818 8.16137 10.0818 7.8323 9.87884 7.62945C9.67585 7.42646 9.34678 7.42646 9.14393 7.62945L7.0934 9.67984L6.53688 9.12332C6.33389 8.92034 6.00482 8.92034 5.80197 9.12332C5.59899 9.32631 5.59899 9.65538 5.80197 9.85823L6.72595 10.7822C6.82744 10.8838 6.96042 10.9345 7.0934 10.9345C7.22638 10.9345 7.3595 10.8837 7.46099 10.7822Z" fill="white"/>
<path fill-rule="evenodd" clip-rule="evenodd" d="M15.7311 4.86985L15.7316 4.88386C15.7729 6.99817 15.8241 9.62953 14.9179 12.0206C14.421 13.3318 13.6692 14.4716 12.6834 15.4086C11.5611 16.4752 10.0915 17.3226 8.31533 17.9271C8.25719 17.9469 8.19665 17.9629 8.13541 17.9749C8.04919 17.9916 7.96213 18 7.8752 18C7.78828 18 7.70136 17.9916 7.615 17.9749C7.55376 17.9629 7.49364 17.947 7.43579 17.9274C5.65752 17.3239 4.18631 16.477 3.06307 15.4103C2.07685 14.4735 1.32502 13.334 0.828592 12.023C-0.0742305 9.63915 -0.0228664 7.01273 0.0184789 4.9024L0.0193255 4.86985C0.0273688 4.69572 0.0328721 4.5128 0.0359765 4.31065C0.0510752 3.31804 0.861894 2.49708 1.8817 2.44174C4.00822 2.32611 5.65329 1.65128 7.05888 0.317951L7.07088 0.306827C7.52948 -0.102276 8.22106 -0.102276 8.67953 0.306827L8.69153 0.317951C10.0971 1.65128 11.7422 2.32611 13.8687 2.4416C14.8887 2.49708 15.6993 3.31804 15.7144 4.31051C15.7177 4.51403 15.723 4.69696 15.7311 4.86985ZM3.26556 9.00029C3.26556 11.4739 5.33325 13.4861 7.87492 13.4861C10.4165 13.4861 12.4843 11.4739 12.4843 9.00029C12.4843 6.52672 10.4165 4.51445 7.87492 4.51445C5.33325 4.51445 3.26556 6.52672 3.26556 9.00029Z" fill="white"/>
</svg>
