<svg width="20" height="21" viewBox="0 0 20 21" fill="none" xmlns="http://www.w3.org/2000/svg">
<path d="M19.7019 11.7053C19.4684 11.4108 19.128 11.2205 18.7548 11.1759C18.3816 11.1312 18.0059 11.2358 17.7094 11.4669L13.6904 14.6174C13.4907 14.7724 13.2449 14.8563 12.9921 14.8559H10.1141C9.9259 14.8559 9.74541 14.7811 9.61234 14.648C9.47927 14.515 9.40451 14.3345 9.40451 14.1463C9.40451 13.9581 9.47927 13.7776 9.61234 13.6445C9.74541 13.5115 9.9259 13.4367 10.1141 13.4367H12.555C12.7411 13.4367 12.9254 13.4 13.0973 13.3286C13.2691 13.2572 13.4252 13.1526 13.5565 13.0207C13.6879 12.8888 13.7919 12.7323 13.8626 12.5602C13.9333 12.388 13.9693 12.2036 13.9685 12.0175C13.9685 11.6412 13.819 11.2802 13.5529 11.014C13.2867 10.7479 12.9258 10.5984 12.5494 10.5984H6.62296C5.86062 10.6005 5.12104 10.8584 4.5226 11.3307L2.55281 12.8747C2.49346 12.9207 2.45477 12.9884 2.44519 13.0628C2.43561 13.1373 2.45594 13.2126 2.50172 13.2721L6.33345 18.1143C6.3596 18.148 6.39317 18.1753 6.43156 18.194C6.46995 18.2127 6.51213 18.2223 6.55484 18.2221L11.1813 18.2618H12.4642C13.2402 18.2687 13.9952 18.0103 14.6043 17.5296L19.4692 13.6865C19.7595 13.4524 19.9466 13.1138 19.9901 12.7434C20.0336 12.373 19.9301 12.0003 19.7019 11.7053Z" fill="white"/>
<path d="M8.86547 3.2073C8.70054 3.20956 8.53992 3.26034 8.40365 3.35327C8.26738 3.4462 8.16148 3.57719 8.09915 3.7299C8.03682 3.88262 8.02082 4.05029 8.05315 4.21204C8.08548 4.37379 8.16471 4.52245 8.28096 4.63947C8.39721 4.75649 8.54532 4.83669 8.70685 4.8701C8.86838 4.9035 9.03616 4.88862 9.18929 4.82731C9.34242 4.766 9.47411 4.66098 9.56794 4.52532C9.66178 4.38967 9.71361 4.22939 9.71697 4.06448C9.71926 3.95176 9.69885 3.83973 9.65694 3.73507C9.61504 3.63041 9.55249 3.53525 9.47304 3.45527C9.39359 3.37529 9.29885 3.31211 9.19446 3.26951C9.09009 3.22691 8.9782 3.20575 8.86547 3.2073ZM17.9481 0.49955C17.8683 0.377163 17.7639 0.272755 17.6416 0.193006C17.4536 0.0667094 17.2322 -0.000502771 17.0058 2.8317e-06H7.0603C6.83412 0.00118404 6.61318 0.0682514 6.42452 0.193006C6.3047 0.275885 6.20086 0.379738 6.11798 0.49955C5.99168 0.687489 5.92447 0.908898 5.92497 1.13533V7.01634C5.92497 7.31744 6.04459 7.60622 6.2575 7.81913C6.47042 8.03205 6.75919 8.15166 7.0603 8.15166H17.0114C17.3126 8.15166 17.6013 8.03205 17.8142 7.81913C18.0272 7.60622 18.1468 7.31744 18.1468 7.01634V1.13533C18.1473 0.908898 18.0801 0.687489 17.9538 0.49955H17.9481ZM16.7219 5.68232C16.4669 5.74181 16.2337 5.87182 16.049 6.05752C15.8643 6.24322 15.7355 6.47712 15.6774 6.7325H8.39431C8.33394 6.47725 8.20373 6.24384 8.01826 6.05837C7.83279 5.8729 7.59938 5.7427 7.34413 5.68232V2.46934C7.59854 2.4072 7.831 2.2764 8.01618 2.09122C8.20137 1.90604 8.33216 1.67357 8.39431 1.41916H15.6831C15.743 1.67369 15.8724 1.90661 16.0568 2.09202C16.2412 2.27742 16.4734 2.40804 16.7276 2.46934L16.7219 5.68232ZM1.39501 14.1575C1.34818 14.0991 1.28013 14.0615 1.20569 14.053C1.13125 14.0444 1.05647 14.0657 0.997652 14.1121L0.10642 14.816C0.0479369 14.8629 0.010344 14.9309 0.00183675 15.0054C-0.00667048 15.0798 0.0145971 15.1546 0.0610059 15.2134L3.79623 19.942C3.84307 20.0005 3.91112 20.0381 3.98556 20.0466C4.06 20.0551 4.13478 20.0338 4.1936 19.9874L5.08483 19.2835C5.14418 19.2375 5.18288 19.1699 5.19245 19.0954C5.20203 19.0209 5.1817 18.9457 5.13592 18.8862L1.39501 14.1575ZM15.2119 3.2073C15.0458 3.2073 14.8834 3.25657 14.7452 3.34889C14.607 3.4412 14.4993 3.57242 14.4358 3.72594C14.3722 3.87945 14.3555 4.04838 14.388 4.21135C14.4204 4.37432 14.5004 4.52402 14.6179 4.64151C14.7354 4.75901 14.8851 4.83903 15.048 4.87145C15.211 4.90387 15.3799 4.88723 15.5335 4.82364C15.687 4.76005 15.8182 4.65236 15.9105 4.5142C16.0028 4.37604 16.0521 4.21361 16.0521 4.04745C16.0521 3.93664 16.0302 3.82692 15.9876 3.72462C15.945 3.62232 15.8826 3.52944 15.804 3.45136C15.7254 3.37327 15.6321 3.3115 15.5295 3.26961C15.4269 3.22773 15.3171 3.20655 15.2063 3.2073H15.2119ZM12.0444 2.26498C11.819 2.27009 11.597 2.32178 11.3925 2.4168C11.188 2.51182 11.0054 2.64813 10.8561 2.81713C10.7068 2.98614 10.5941 3.18419 10.5251 3.39885C10.4561 3.61351 10.4322 3.84014 10.4549 4.06448C10.4549 5.1998 11.1645 5.87533 12.0387 5.87533C12.9129 5.87533 13.6225 5.1998 13.6225 4.06448C13.6452 3.8406 13.6215 3.61445 13.5528 3.40016C13.4841 3.18588 13.3719 2.98808 13.2232 2.81916C13.0746 2.65024 12.8926 2.51384 12.6888 2.41848C12.485 2.32312 12.2637 2.27086 12.0387 2.26498H12.0444Z" fill="white"/>
</svg>
