<svg width="20" height="14" viewBox="0 0 20 14" fill="none" xmlns="http://www.w3.org/2000/svg">
<path d="M19.9224 7.17206L18.423 5.6674C18.3731 5.61904 18.3063 5.59199 18.2369 5.59199C18.1674 5.59199 18.1006 5.61904 18.0507 5.6674L13.8566 9.86159C13.8082 9.91148 13.7811 9.97822 13.7811 10.0477C13.7811 10.1172 13.8082 10.1839 13.8566 10.2338L15.3612 11.7333C15.3856 11.7578 15.4146 11.7773 15.4465 11.7906C15.4785 11.8039 15.5127 11.8108 15.5473 11.8108C15.5819 11.8108 15.6162 11.8039 15.6482 11.7906C15.6801 11.7773 15.7091 11.7578 15.7335 11.7333L19.9277 7.53906C19.975 7.48938 20.001 7.42311 20 7.35449C19.999 7.28587 19.9711 7.22037 19.9224 7.17206ZM18.8739 1.04855C18.8739 0.770456 18.7634 0.503753 18.5667 0.307112C18.3701 0.110471 18.1034 0 17.8253 0H1.04855C0.770456 0 0.503753 0.110471 0.307112 0.307112C0.110471 0.503753 0 0.770456 0 1.04855V9.9612C0 10.2393 0.110471 10.506 0.307112 10.7026C0.503753 10.8993 0.770456 11.0098 1.04855 11.0098H10.9101C10.9626 10.9364 18.8739 3.01457 18.8739 3.01457V1.04855ZM3.99496 4.60836L5.30565 5.28467C5.65552 5.46117 5.93926 5.74562 6.11489 6.09593C6.29052 6.44624 6.3487 6.84378 6.28081 7.22973C6.23574 7.54408 6.10679 7.84049 5.90751 8.08775C5.70822 8.33501 5.44598 8.52398 5.14837 8.63479V8.91266C5.14837 9.08646 5.07933 9.25315 4.95643 9.37605C4.83353 9.49895 4.66684 9.568 4.49303 9.568C4.31922 9.568 4.15254 9.49895 4.02964 9.37605C3.90673 9.25315 3.83769 9.08646 3.83769 8.91266V8.67673C3.51708 8.58864 3.22025 8.42992 2.96896 8.21219C2.71767 7.99447 2.51829 7.72327 2.38544 7.41847C2.34787 7.33917 2.3266 7.25312 2.32291 7.16544C2.31922 7.07776 2.33318 6.99024 2.36395 6.90805C2.39473 6.82587 2.4417 6.75071 2.50208 6.68702C2.56245 6.62333 2.63499 6.57243 2.71541 6.53731C2.79584 6.50219 2.88251 6.48357 2.97026 6.48258C3.05801 6.48158 3.14505 6.49822 3.22625 6.5315C3.30745 6.56479 3.38113 6.61405 3.44293 6.67635C3.50473 6.73865 3.5534 6.81274 3.58603 6.8942C3.66366 7.07264 3.79573 7.22196 3.96333 7.32083C4.13094 7.4197 4.32551 7.46305 4.51924 7.44468H4.58215C4.68585 7.43022 4.78181 7.38168 4.85489 7.3067C4.92798 7.23172 4.97405 7.13456 4.98585 7.03051C5.00931 6.9166 4.99422 6.79811 4.94297 6.69371C4.89172 6.58931 4.80721 6.50492 4.70274 6.45381L3.39205 5.77749C3.03673 5.59663 2.75021 5.30465 2.57607 4.94598C2.40194 4.58731 2.34973 4.18156 2.42739 3.79049C2.48772 3.43462 2.65497 3.10557 2.9069 2.84709C3.15882 2.58861 3.48349 2.41296 3.83769 2.3435V2.10233C3.83769 1.92852 3.90673 1.76183 4.02964 1.63893C4.15254 1.51603 4.31922 1.44699 4.49303 1.44699C4.66684 1.44699 4.83353 1.51603 4.95643 1.63893C5.07933 1.76183 5.14837 1.92852 5.14837 2.10233V2.4536C5.66743 2.67907 6.08154 3.09318 6.30701 3.61224C6.37035 3.77035 6.36963 3.9469 6.30503 4.1045C6.24043 4.26209 6.11702 4.38834 5.96093 4.4565C5.80484 4.52466 5.62835 4.52939 5.46884 4.46966C5.30934 4.40993 5.17935 4.29043 5.10642 4.13651C5.02963 3.9571 4.89794 3.80665 4.73026 3.7068C4.56258 3.60694 4.36755 3.56282 4.17322 3.58078C4.06155 3.5921 3.95647 3.63896 3.87342 3.71446C3.79037 3.78996 3.73373 3.89013 3.71185 4.00021C3.68541 4.11254 3.69678 4.23044 3.74417 4.33566C3.79157 4.44088 3.87234 4.52752 3.97399 4.58215L3.99496 4.60836ZM11.8119 7.69634H8.66625C8.49244 7.69634 8.32575 7.62729 8.20285 7.50439C8.07995 7.38149 8.0109 7.2148 8.0109 7.04099C8.0109 6.86719 8.07995 6.7005 8.20285 6.5776C8.32575 6.4547 8.49244 6.38565 8.66625 6.38565H11.8119C11.9857 6.38565 12.1524 6.4547 12.2753 6.5776C12.3982 6.7005 12.4672 6.86719 12.4672 7.04099C12.4672 7.2148 12.3982 7.38149 12.2753 7.50439C12.1524 7.62729 11.9857 7.69634 11.8119 7.69634ZM13.909 5.07497H8.66625C8.49244 5.07497 8.32575 5.00592 8.20285 4.88302C8.07995 4.76012 8.0109 4.59343 8.0109 4.41962C8.0109 4.24582 8.07995 4.07913 8.20285 3.95623C8.32575 3.83333 8.49244 3.76428 8.66625 3.76428H13.909C14.0828 3.76428 14.2495 3.83333 14.3724 3.95623C14.4953 4.07913 14.5643 4.24582 14.5643 4.41962C14.5643 4.59343 14.4953 4.76012 14.3724 4.88302C14.2495 5.00592 14.0828 5.07497 13.909 5.07497ZM12.9024 11.167C12.8785 11.1426 12.8499 11.1232 12.8184 11.11C12.7869 11.0967 12.7531 11.0899 12.7189 11.0899C12.6847 11.0899 12.6509 11.0967 12.6194 11.11C12.5879 11.1232 12.5593 11.1426 12.5354 11.167L12.0111 11.6913C11.9684 11.7352 11.9424 11.7927 11.9377 11.8538L11.8066 13.5525C11.804 13.591 11.81 13.6296 11.824 13.6656C11.8381 13.7016 11.8599 13.734 11.888 13.7606C11.9161 13.7871 11.9496 13.8071 11.9863 13.8192C12.023 13.8313 12.0619 13.8351 12.1002 13.8303L13.7307 13.6416C13.7885 13.6358 13.8423 13.6098 13.8828 13.5682L14.4071 13.0439C14.4321 13.0204 14.4521 12.992 14.4658 12.9604C14.4794 12.9288 14.4865 12.8948 14.4865 12.8604C14.4865 12.826 14.4794 12.792 14.4658 12.7605C14.4521 12.7289 14.4321 12.7005 14.4071 12.6769L12.9024 11.167Z" fill="white"/>
</svg>
