<svg width="14" height="14" viewBox="0 0 14 14" fill="none" xmlns="http://www.w3.org/2000/svg">
<path d="M14 6.56709V7.44271C13.9795 7.60908 13.9635 7.77581 13.9386 7.94181C13.7432 9.32821 13.192 10.5585 12.2642 11.6096C11.1819 12.8343 9.83215 13.5987 8.21908 13.8905C7.96009 13.9372 7.69782 13.9635 7.43738 14H6.5607C6.52125 13.992 6.4818 13.9818 6.44199 13.9763C6.15378 13.9362 5.86192 13.9128 5.57737 13.8544C2.03452 13.1244 -0.385101 9.77624 0.0506779 6.1924C0.291763 4.20146 1.22615 2.59361 2.82681 1.39438C3.91968 0.570046 5.23311 0.0885837 6.60041 0.0110899C7.96771 -0.0664038 9.32724 0.263565 10.5065 0.95912C12.3712 2.05072 13.4985 3.68412 13.8937 5.81151C13.9408 6.06179 13.9653 6.31535 14 6.56709ZM12.4702 6.99797C12.4655 3.98073 10.0126 1.5363 6.99539 1.54104C3.97817 1.54579 1.52604 3.99642 1.53079 7.01001C1.53554 10.0236 3.98949 12.472 7.00561 12.4677C10.0217 12.4633 12.4735 10.0112 12.4702 6.99797Z" fill="white"/>
<path d="M4.00604 6.34959H5.45657V6.05443C5.45657 5.6947 5.45657 5.33533 5.45657 4.97559C5.45657 4.51553 5.06609 4.2481 4.63286 4.40936C4.62081 4.4141 4.60766 4.41629 4.57332 4.42578C4.49771 4.25832 4.41735 4.09158 4.34904 3.92011C4.33406 3.88363 4.35342 3.82233 4.37315 3.78001C4.52364 3.46004 4.83011 3.30353 5.24763 3.3287C5.76669 3.35935 6.06586 3.64429 6.17471 4.23387C6.20842 4.42666 6.22589 4.62192 6.22695 4.81762C6.23389 5.32219 6.22914 5.82677 6.22914 6.33718C6.25283 6.34434 6.27744 6.34803 6.30219 6.34813C6.57615 6.29304 6.76208 6.41818 6.93267 6.61957C7.0638 6.77463 7.23037 6.89904 7.3816 7.03731L7.35347 7.08365H6.23827C6.23498 7.14457 6.23023 7.18836 6.23023 7.2325C6.23023 7.86489 6.23023 8.49728 6.23023 9.12968C6.23023 9.53976 6.45378 9.79332 6.86436 9.81703C7.03714 9.82725 7.23147 9.82324 7.38488 9.75538C8.06175 9.45548 8.53734 8.9582 8.76272 8.24202C8.78356 8.15799 8.79882 8.07267 8.80838 7.98663C8.65277 7.97751 8.50812 7.97933 8.36676 7.95817C8.00659 7.90381 7.77318 7.69913 7.68186 7.34305C7.62451 7.12013 7.60113 6.89283 7.66871 6.66882C7.81482 6.18979 8.15782 5.97562 8.76163 6.03473C9.32087 6.08982 9.64232 6.46706 9.84139 6.94683C10.0971 7.56232 10.0313 8.18182 9.753 8.77322C9.21932 9.90752 8.29188 10.5091 7.06965 10.666C6.80774 10.7 6.52173 10.65 6.26311 10.5777C5.76304 10.438 5.45949 10.0027 5.45949 9.48321C5.45621 8.74112 5.45949 7.99903 5.45949 7.25768V7.08657C5.23229 7.08657 5.02335 7.08985 4.81477 7.08438C4.76247 7.08433 4.71177 7.0663 4.67122 7.0333C4.45351 6.81914 4.24421 6.59731 4.00604 6.34959Z" fill="white"/>
</svg>
