<svg width="30" height="30" viewBox="0 0 30 30" fill="none" xmlns="http://www.w3.org/2000/svg">
<path d="M15.0303 30C6.76525 30.0056 0.00565656 23.2986 0 15.0885C0 6.71354 6.69333 -0.00807352 15.0303 7.27848e-06C23.2614 0.00808808 29.9911 6.7394 30 14.9745C30.0129 23.2574 23.2994 29.9935 15.0303 30ZM14.9705 29.0303C22.6731 29.057 29.0028 22.7749 29.0359 15.0707C29.0691 7.32445 22.8137 0.995562 15.0925 0.964047C7.34949 0.93334 0.999596 7.18142 0.970505 14.863C0.940606 22.6966 7.17494 29.0069 14.9697 29.0335L14.9705 29.0303Z" fill="white"/>
<path d="M11.6565 15.5233C11.5474 15.4296 11.4327 15.3374 11.3252 15.2364C9.85047 13.8457 9.31713 12.1512 9.89814 10.211C10.4832 8.25704 11.8691 7.10148 13.882 6.79441C16.522 6.39037 19.006 8.31441 19.3495 10.9641C19.6929 13.6138 17.8327 16.0752 15.1781 16.3904C14.3224 16.4922 13.448 16.4429 12.5826 16.451C10.6044 16.4704 8.8735 17.7536 8.40319 19.6671C8.23269 20.358 8.26824 21.1023 8.24158 21.8239C8.23269 22.0704 8.42178 22.2199 8.67148 22.2538C8.77172 22.2621 8.8724 22.264 8.97289 22.2595H15.7446C15.8452 22.2528 15.9462 22.2563 16.046 22.27C16.2884 22.3192 16.4428 22.476 16.4501 22.7281C16.4573 22.9956 16.3046 23.1605 16.046 23.213C15.9561 23.2256 15.8651 23.2288 15.7745 23.2227H8.88158C7.83835 23.2227 7.26542 22.6409 7.25895 21.5896C7.25249 20.7621 7.24441 19.9346 7.52966 19.1419C8.20521 17.2623 9.51377 16.0836 11.4553 15.6057C11.5127 15.592 11.5709 15.5774 11.6282 15.5605C11.6355 15.5629 11.6396 15.5483 11.6565 15.5233ZM14.5373 7.7431C13.5127 7.7405 12.5286 8.14347 11.8 8.86401C11.0714 9.58455 10.6576 10.5641 10.6489 11.5888C10.6343 13.714 12.3709 15.4756 14.488 15.4845C16.6278 15.4934 18.3773 13.7754 18.3903 11.6526C18.3951 11.1425 18.2991 10.6366 18.1078 10.1637C17.9165 9.69087 17.6337 9.26046 17.2756 8.8972C16.9175 8.53395 16.4912 8.245 16.0212 8.04694C15.5511 7.84889 15.0466 7.74563 14.5365 7.7431H14.5373Z" fill="white"/>
<path d="M18.8743 18.3871V16.3669C18.8743 16.2658 18.8743 16.1656 18.8743 16.0646C18.8808 15.7075 19.0602 15.4909 19.3527 15.4877C19.6453 15.4844 19.8376 15.701 19.8376 16.0533C19.8416 16.7087 19.8376 17.3632 19.8376 18.0186V18.3871H20.5455C21.099 18.3871 21.6533 18.383 22.2077 18.3871C22.539 18.3911 22.7483 18.5866 22.7467 18.8719C22.745 19.1572 22.5341 19.3495 22.2028 19.3519C21.4287 19.3567 20.6554 19.3519 19.8465 19.3519V20.7539C19.8465 21.0666 19.8465 21.3786 19.8465 21.6913C19.8416 22.0412 19.6461 22.2569 19.3527 22.2529C19.0715 22.2464 18.884 22.0347 18.8816 21.7002C18.8768 21.0254 18.8816 20.3499 18.8816 19.6751V19.3519H16.7992C16.6885 19.3519 16.577 19.3567 16.4663 19.3519C16.177 19.3341 15.9814 19.1442 15.9733 18.8824C15.9661 18.6069 16.1681 18.3976 16.4727 18.3903C17.1879 18.3814 17.903 18.3903 18.6182 18.3862L18.8743 18.3871Z" fill="white"/>
</svg>
